<svg height="60" viewBox="0 0 201.834 60" width="201.834" xmlns="http://www.w3.org/2000/svg" xmlns:xlink="http://www.w3.org/1999/xlink"><clipPath id="a"><path d="m135.266 0c-.821.453-3.615 3.816-4.749 6.5-.442-.963-3.078-3.279-5.593-5.6a20.18 20.18 0 0 0 .247 9.359c5.276-1.092 11.769-1.684 18.3.126a22.716 22.716 0 0 0 1.271-9.041 15.3 15.3 0 0 0 -5.791 4.4 32.436 32.436 0 0 0 -3.685-5.744z" transform="translate(-124.487)"/></clipPath><clipPath id="b"><path d="m0 0h70.152v60h-70.152z"/></clipPath><clipPath id="c"><path d="m0 0h124.834v35.631h-124.834z"/></clipPath><linearGradient id="d" gradientUnits="objectBoundingBox" x1="-.082" x2=".649" y1="1.425" y2="-.094"><stop offset="0" stop-color="#e4b644"/><stop offset=".01" stop-color="#e4b644"/><stop offset=".039" stop-color="#d39d31"/><stop offset=".073" stop-color="#c58820"/><stop offset=".095" stop-color="#c0801a"/><stop offset=".272" stop-color="#f4c04b"/><stop offset=".334" stop-color="#fed057"/><stop offset=".334" stop-color="#ffd158"/><stop offset=".387" stop-color="#ffdd6c"/><stop offset=".446" stop-color="#f9cf5f"/><stop offset=".49" stop-color="#ebbb4d"/><stop offset=".527" stop-color="#e3b044"/><stop offset=".589" stop-color="#daa53a"/><stop offset=".631" stop-color="#e1ae42"/><stop offset=".711" stop-color="#f4cb5f"/><stop offset=".743" stop-color="#fad569"/><stop offset=".77" stop-color="#f3cc60"/><stop offset=".793" stop-color="#e8ba4f"/><stop offset=".826" stop-color="#dca83d"/><stop offset=".861" stop-color="#d69d33"/><stop offset=".9" stop-color="#d49a30"/><stop offset=".963" stop-color="#ba8833"/><stop offset=".994" stop-color="#ab7e35"/><stop offset="1" stop-color="#ab7e35"/></linearGradient><g clip-path="url(#a)" transform="translate(25.139)"><path d="m0 0h14.778v22.929h-14.778z" fill="url(#d)" transform="matrix(.21899481 -.97572602 .97572602 .21899481 -2.73897 9.886148)"/></g><g clip-path="url(#b)"><path d="m44.6 62.841c3.426 0 15.159.72 25.554 6.724-7.974-7.643-20.954-10.028-25.822-10.152l.038-.009c3.977-.936 10.247-.749 14.673.164 1.961-7.762.292-14.094-2.771-18.751 2.094-4.864 4.526-12.632 2.3-18.982-2.364.2-7.633 2.432-13.037 8.173a33.5 33.5 0 0 0 -9.21-1.617c-.52-.015-2.431-.016-2.824-.009a33.422 33.422 0 0 0 -9.608 1.626c-5.4-5.742-10.673-7.971-13.037-8.173-1.841 5.244-.5 11.452 1.2 16.2l1.1 2.786a22.857 22.857 0 0 0 -2.834 18.6c4.87-.722 10.4-1.386 14.955-.136a1.612 1.612 0 0 1 -.282.14c-4.795.121-17.332 2.069-24.995 10.14 8.375-5.006 18.03-7.643 26.044-6.715-.41.093-.855.224-1.32.379-5.129 1.149-15.785 4.46-23.476 13.138 6.628-4.539 14.553-8.809 25.43-10.239-2.81 1.135-9.34 3.087-14.444 10.792a34.417 34.417 0 0 1 9.033-5.62c.231.16 1.769 1.243 1.993 1.393a22.08 22.08 0 0 0 4.593 2.724 16.982 16.982 0 0 0 5.761 1.953 10.768 10.768 0 0 0 2.331-.015c1.706-.2 5.726-.924 12.02-6.1a41.139 41.139 0 0 1 9.661 5.292c-3.808-5.969-13.356-10.07-14.511-10.379a66.429 66.429 0 0 1 25.785 10.198c-7.1-7.833-19.612-12.373-24.3-13.525m10.236-37.741c-1.711 3.264-3.922 6.8-4.3 8.932a11.829 11.829 0 0 0 -2.587-2.539 16.6 16.6 0 0 1 6.887-6.393m-16.299 33.8a.843.843 0 0 1 .669 1.357c-1.155 1.512-3.049 3.336-4.253 3.336s-3.16-1.818-4.338-3.33a.843.843 0 0 1 .665-1.362zm-3.643 10.311a7.281 7.281 0 0 1 -6.408 1.005 12.833 12.833 0 0 0 6.408-4.1 11.585 11.585 0 0 0 6.258 4.111c-3.094.834-3.953.322-6.258-1.012" fill="#141414" transform="translate(0 -17.426)"/><g fill="#fff"><path d="m79.319 44.793a11.833 11.833 0 0 0 -2.587 2.539c-.376-2.134-2.587-5.669-4.3-8.932a16.6 16.6 0 0 1 6.885 6.393" transform="translate(-57.807 -30.646)"/><path d="m194.733 147.641 1.392-3.588a5.365 5.365 0 0 1 3.107-3.079l7.991-3.017-.976 1.743a11.735 11.735 0 0 1 -5.1 4.818z" transform="translate(-155.409 -110.098)"/><path d="m89.407 139.7-.976-1.743 7.991 3.017a5.365 5.365 0 0 1 3.107 3.079l1.392 3.588-6.412-3.123a11.735 11.735 0 0 1 -5.1-4.818" transform="translate(-70.573 -110.098)"/></g></g><g fill="#161615" transform="translate(77 15)"><path d="m0 11.826v5.512h9.353v23.717h6.764v-23.717h9.353v-5.512z" transform="translate(0 -8.706)"/><g clip-path="url(#c)"><path d="m109.55 38.2a14.561 14.561 0 0 1 -5.72-5.407 14.762 14.762 0 0 1 -2.067-7.746 14.761 14.761 0 0 1 2.067-7.747 14.563 14.563 0 0 1 5.72-5.407 18.09 18.09 0 0 1 16.389 0 14.626 14.626 0 0 1 7.808 13.153 14.626 14.626 0 0 1 -7.808 13.154 18.09 18.09 0 0 1 -16.389 0m12.882-4.99a8.537 8.537 0 0 0 3.278-3.32 9.754 9.754 0 0 0 1.19-4.844 9.755 9.755 0 0 0 -1.19-4.844 8.538 8.538 0 0 0 -3.278-3.32 9.783 9.783 0 0 0 -9.353 0 8.538 8.538 0 0 0 -3.279 3.318 9.76 9.76 0 0 0 -1.19 4.844 9.759 9.759 0 0 0 1.19 4.844 8.536 8.536 0 0 0 3.278 3.32 9.783 9.783 0 0 0 9.353 0" transform="translate(-74.914 -7.308)"/><path d="m268.9 41.055-.042-17.537-8.6 14.447h-3.058l-8.56-14.072v17.162h-6.34v-29.229h5.6l10.94 18.164 10.773-18.164h5.554l.084 29.229z" transform="translate(-178.369 -8.706)"/></g></g></svg>