<svg height="102" viewBox="0 0 102 102" width="102" xmlns="http://www.w3.org/2000/svg" xmlns:xlink="http://www.w3.org/1999/xlink"><clipPath id="a"><path d="m132.606 0a14.933 14.933 0 0 0 -3.577 4.9c-.333-.726-2.319-2.47-4.213-4.216a15.2 15.2 0 0 0 .184 7.047 29.377 29.377 0 0 1 13.782.095 17.111 17.111 0 0 0 .958-6.81 11.526 11.526 0 0 0 -4.362 3.312 24.435 24.435 0 0 0 -2.771-4.328z" transform="translate(-124.487)"/></clipPath><clipPath id="b"><path d="m0 0h52.844v45.197h-52.844z"/></clipPath><linearGradient id="c" gradientUnits="objectBoundingBox" x1="-.082" x2=".649" y1="1.425" y2="-.094"><stop offset="0" stop-color="#e4b644"/><stop offset=".01" stop-color="#e4b644"/><stop offset=".039" stop-color="#d39d31"/><stop offset=".073" stop-color="#c58820"/><stop offset=".095" stop-color="#c0801a"/><stop offset=".272" stop-color="#f4c04b"/><stop offset=".334" stop-color="#fed057"/><stop offset=".334" stop-color="#ffd158"/><stop offset=".387" stop-color="#ffdd6c"/><stop offset=".446" stop-color="#f9cf5f"/><stop offset=".49" stop-color="#ebbb4d"/><stop offset=".527" stop-color="#e3b044"/><stop offset=".589" stop-color="#daa53a"/><stop offset=".631" stop-color="#e1ae42"/><stop offset=".711" stop-color="#f4cb5f"/><stop offset=".743" stop-color="#fad569"/><stop offset=".77" stop-color="#f3cc60"/><stop offset=".793" stop-color="#e8ba4f"/><stop offset=".826" stop-color="#dca83d"/><stop offset=".861" stop-color="#d69d33"/><stop offset=".9" stop-color="#d49a30"/><stop offset=".963" stop-color="#ba8833"/><stop offset=".994" stop-color="#ab7e35"/><stop offset="1" stop-color="#ab7e35"/></linearGradient><filter id="d" filterUnits="userSpaceOnUse" height="102" width="102" x="0" y="0"><feOffset dy="3"/><feGaussianBlur result="blur" stdDeviation="3"/><feFlood flood-opacity=".161"/><feComposite in2="blur" operator="in"/><feComposite in="SourceGraphic"/></filter><g filter="url(#d)" transform="translate(.004 .004)"><circle cx="42" cy="42" fill="#f8f8f8" r="42" transform="translate(9 6)"/></g><g clip-path="url(#a)" transform="translate(43.406 25.795)"><path d="m0 0h11.132v17.272h-11.132z" fill="url(#c)" transform="matrix(.21899481 -.97572602 .97572602 .21899481 -2.0631 7.446526)"/></g><g clip-path="url(#b)" transform="translate(24.469 25.795)"><path d="m33.595 52.724a41.73 41.73 0 0 1 19.25 5.065c-6-5.757-15.781-7.554-19.45-7.647l.028-.007a29.575 29.575 0 0 1 11.053.124 17.269 17.269 0 0 0 -2.088-14.125c1.577-3.664 3.409-9.516 1.73-14.3-1.781.153-5.75 1.832-9.821 6.157a25.237 25.237 0 0 0 -6.937-1.218c-.392-.012-1.831-.012-2.127-.007a25.176 25.176 0 0 0 -7.233 1.226c-4.071-4.325-8.04-6-9.821-6.157-1.387 3.95-.378 8.626.9 12.2l.826 2.1a17.218 17.218 0 0 0 -2.136 14.007c3.668-.544 7.831-1.044 11.265-.1a1.214 1.214 0 0 1 -.212.105c-3.6.1-13.051 1.565-18.823 7.645 6.309-3.771 13.581-5.757 19.618-5.059-.309.07-.644.169-.994.286-3.864.865-11.891 3.36-17.684 9.9a42.6 42.6 0 0 1 19.161-7.719 20.39 20.39 0 0 0 -10.88 8.129 25.926 25.926 0 0 1 6.8-4.234c.174.121 1.333.936 1.5 1.049a16.632 16.632 0 0 0 3.46 2.052 12.793 12.793 0 0 0 4.339 1.471 8.112 8.112 0 0 0 1.756-.011c1.285-.149 4.314-.7 9.054-4.592a30.989 30.989 0 0 1 7.278 3.986c-2.869-4.5-10.061-7.588-10.931-7.821a50.04 50.04 0 0 1 19.424 7.684c-5.355-5.9-14.776-9.321-18.309-10.189m7.712-28.433c-1.289 2.459-2.954 5.121-3.237 6.729a8.91 8.91 0 0 0 -1.949-1.913 12.5 12.5 0 0 1 5.186-4.816m-12.274 25.466a.635.635 0 0 1 .5 1.022c-.87 1.139-2.3 2.513-3.2 2.513s-2.38-1.369-3.267-2.509a.635.635 0 0 1 .5-1.026zm-2.744 7.766a5.485 5.485 0 0 1 -4.827.757 9.667 9.667 0 0 0 4.827-3.091 8.726 8.726 0 0 0 4.715 3.096c-2.331.628-2.978.243-4.714-.763" fill="#141414" transform="translate(0 -18.514)"/><g fill="#fff"><path d="m77.62 43.216a8.913 8.913 0 0 0 -1.949 1.913c-.283-1.607-1.949-4.27-3.238-6.729a12.5 12.5 0 0 1 5.186 4.816" transform="translate(-61.416 -32.559)"/><path d="m194.733 145.252 1.049-2.7a4.041 4.041 0 0 1 2.34-2.319l6.02-2.273-.735 1.313a8.84 8.84 0 0 1 -3.843 3.629z" transform="translate(-165.111 -116.971)"/><path d="m89.166 139.27-.735-1.313 6.02 2.273a4.041 4.041 0 0 1 2.34 2.319l1.049 2.7-4.83-2.352a8.84 8.84 0 0 1 -3.843-3.629" transform="translate(-74.979 -116.971)"/></g></g></svg>