<svg height="460" viewBox="0 0 2300 460" width="2300" xmlns="http://www.w3.org/2000/svg"><g opacity=".05"><g transform="translate(0 .002)"><path d="m0 0v460h460v-460z" fill="#f5f1e9"/><g fill="#cfc5b2"><path d="m61.638 446.475-38.57 68.993-2.668 4.769 8.1 8.093 7.19-12.862 34.045-60.9z" transform="translate(-13.045 -285.47)"/><path d="m0 428.476v22.572l33.687-60.259-8.094-8.089z" transform="translate(0 -244.69)"/><path d="m0 323.555v22.572l10.687-19.117-8.093-8.094z" transform="translate(0 -203.91)"/><path d="m176.342 0-28.38 50.767 8.094 8.094 32.905-58.861z" transform="translate(-94.604)"/><path d="m23.068 0-2.668 4.767 8.1 8.094 7.186-12.861z" transform="translate(-13.045)"/><path d="m99.7 0-15.519 27.767 8.094 8.094 20.049-35.861z" transform="translate(-53.824)"/><path d="m347.395 209.432 41.235-73.762-8.094-8.094-41.236 73.762z" transform="translate(-216.944 -81.571)"/><path d="m474.954 336.991 41.235-73.762-8.094-8.094-41.235 73.765z" transform="translate(-298.503 -163.13)"/><path d="m530.639 392.678 8.094 8.094 30.549-54.646 10.687-19.117-8.094-8.094-2.593 4.639z" transform="translate(-339.282 -203.911)"/><path d="m211.742 73.779 8.093 8.093 41.235-73.762-8.093-8.094z" transform="translate(-135.385 -.011)"/><path d="m283.615 145.652 41.235-73.762-8.093-8.09-41.235 73.762z" transform="translate(-176.164 -40.791)"/><path d="m411.174 273.211 41.235-73.762-8.094-8.094-41.235 73.762z" transform="translate(-257.723 -122.35)"/><path d="m610.061 428.476-15.642 27.982 8.094 8.094 7.549-13.5 33.687-60.259-8.093-8.094-25.593 45.781z" transform="translate(-380.061 -244.69)"/><path d="m699.433 446.475-38.57 68.993-2.666 4.769 8.094 8.094 7.19-12.862 34.045-60.9z" transform="translate(-420.841 -285.47)"/><path d="m814.138 0-28.38 50.767 8.094 8.094 32.904-58.861z" transform="translate(-502.4)"/><path d="m660.864 0-2.664 4.767 8.094 8.094 7.188-12.861z" transform="translate(-420.841)"/><path d="m737.5 0-15.523 27.767 8.094 8.094 20.048-35.861z" transform="translate(-461.62)"/><path d="m985.191 209.432 41.234-73.762-8.093-8.094-41.232 73.762z" transform="translate(-624.739 -81.571)"/><path d="m1112.749 336.991 41.234-73.762-8.094-8.094-41.234 73.765z" transform="translate(-706.298 -163.13)"/><path d="m1168.434 400.9 8.094 8.094 30.548-54.646v-22.574z" transform="translate(-747.077 -212.132)"/><path d="m849.538 73.779 8.093 8.093 41.235-73.762-8.093-8.094z" transform="translate(-543.18 -.011)"/><path d="m921.411 145.652 41.235-73.762-8.094-8.09-41.235 73.762z" transform="translate(-583.96 -40.791)"/><path d="m1048.969 273.211 41.234-73.762-8.094-8.094-41.234 73.762z" transform="translate(-665.518 -122.35)"/><path d="m1232.213 537.625 8.094 8.094 7.548-13.5v-22.575z" transform="translate(-787.857 -325.858)"/><path d="m27.795 1153.264h12.618l34.045-60.9-8.093-8.094z" transform="translate(-17.772 -693.265)"/><path d="m0 1066.272v22.572l33.687-60.259-8.094-8.094z" transform="translate(0 -652.486)"/><path d="m0 961.351v22.571l10.687-19.116-8.093-8.094z" transform="translate(0 -611.706)"/><path d="m226.664 1234.823h12.619l8.329-14.9-8.093-8.094z" transform="translate(-144.925 -774.825)"/><path d="m127.229 1194.044h12.619l21.187-37.9-8.093-8.094z" transform="translate(-81.348 -734.045)"/><path d="m156.055 655.891 32.906-58.862 8.329-14.9-8.094-8.094-12.854 22.992-28.38 50.773z" transform="translate(-94.604 -367.03)"/><path d="m112.324 556.248 21.187-37.9-8.093-8.094-25.713 45.994-15.523 27.769 8.094 8.093z" transform="translate(-53.825 -326.25)"/><path d="m380.536 765.372-41.236 73.762 8.094 8.094 41.234-73.762z" transform="translate(-216.943 -489.367)"/><path d="m508.094 892.931-41.235 73.762 8.094 8.094 41.234-73.762z" transform="translate(-298.502 -570.926)"/><path d="m261.071 645.907-8.094-8.093-41.235 73.762 8.093 8.094z" transform="translate(-135.385 -407.809)"/><path d="m316.757 701.593-41.235 73.762 8.094 8.094 41.235-73.762z" transform="translate(-176.164 -448.588)"/><path d="m444.315 829.152-41.235 73.762 8.094 8.094 41.234-73.762z" transform="translate(-257.723 -530.147)"/><path d="m665.59 1153.264h12.618l34.045-60.9-8.093-8.094z" transform="translate(-425.567 -693.265)"/><path d="m643.747 1028.585-8.093-8.094-25.593 45.781-15.643 27.982 8.094 8.094 7.549-13.5z" transform="translate(-380.061 -652.486)"/><path d="m569.281 983.923 10.687-19.117-8.094-8.094-2.593 4.639-38.643 69.124 8.094 8.094z" transform="translate(-339.282 -611.707)"/><path d="m864.46 1234.823h12.619l8.329-14.9-8.094-8.094z" transform="translate(-552.721 -774.825)"/><path d="m765.024 1194.044h12.619l21.187-37.9-8.093-8.094z" transform="translate(-489.144 -734.045)"/><path d="m793.851 655.891 32.906-58.862 8.329-14.9-8.094-8.094-12.854 22.992-28.381 50.773z" transform="translate(-502.4 -367.03)"/><path d="m750.12 556.248 21.187-37.9-8.093-8.094-25.714 45.994-15.523 27.769 8.094 8.093z" transform="translate(-461.62 -326.25)"/><path d="m1018.331 765.372-41.231 73.762 8.094 8.094 41.234-73.762z" transform="translate(-624.739 -489.367)"/><path d="m1145.889 892.931-41.235 73.762 8.094 8.094 41.234-73.762z" transform="translate(-706.297 -570.926)"/><path d="m1168.434 1038.7 8.094 8.094 30.548-54.646v-22.577z" transform="translate(-747.077 -619.928)"/><path d="m898.866 645.907-8.093-8.093-41.235 73.762 8.093 8.094z" transform="translate(-543.18 -407.809)"/><path d="m954.552 701.593-41.235 73.762 8.094 8.094 41.235-73.762z" transform="translate(-583.959 -448.588)"/><path d="m1082.11 829.152-41.235 73.762 8.094 8.094 41.234-73.762z" transform="translate(-665.519 -530.147)"/><path d="m1232.213 1175.421 8.094 8.094 7.548-13.5v-22.572z" transform="translate(-787.857 -733.654)"/></g><path d="m140.176 0-14.49 8.1-41.235 73.761-73.762 41.239-10.689 19.116v41.57l25.594-45.781 73.764-41.238 41.235-73.767 41.152-23z" fill="#231f20"/><path d="m94.357 0-32.905 58.86-61.452 34.354v26.431l2.594-4.639 73.764-41.239 41.235-73.767h.007z" fill="#231f20"/><path d="m58.5 0-20.048 35.861-38.452 21.495v23.244l53.357-29.833 28.382-50.767z" fill="#231f20" transform="translate(-.001)"/><path d="m22.642 0-7.19 12.863-15.452 8.637v23.238l30.357-16.971 15.524-27.767z" fill="#231f20"/><path d="m0 0v8.88l7.357-4.113 2.666-4.767z" fill="#231f20"/><path d="m814.709 585.74-18.135 10.138-55.631 31.1-41.235 73.762-73.762 41.235-33.687 60.259-7.549 13.5-18.135 10.138h35.707l38.57-68.993 73.762-41.235 41.235-73.762 66.407-37.125v-32.52z" fill="#231f20" transform="translate(-362.258 -365.88)"/><path d="m677.982 449.013-59.282 33.138-14.49 8.1-41.235 73.762-73.755 41.236-10.687 19.116-30.549 54.646-59.284 33.14h41.57l32.613-18.232 15.643-27.982 25.593-45.781 73.763-41.235 41.235-73.762 41.153-23.007 32.614-18.232 15.642-27.981v-41.572z" fill="#231f20" transform="translate(-248.532 -252.153)"/><path d="m614.984 265.374-41.234 73.762-73.762 41.235-8.329 14.9-32.906 58.862-61.453 34.356-12.314 6.884-41.235 73.762-73.762 41.235-8.329 14.9h23.24l73.756-41.232 38.644-69.12 2.593-4.639 73.763-41.235 41.235-73.762.012-.007 73.756-41.231 38.641-69.127v-26.427z" fill="#231f20" transform="translate(-167.298 -165.275)"/><path d="m528.407 178.8-41.234 73.762-73.763 41.235-21.19 37.903-20.048 35.862-38.452 21.5-35.313 19.738-41.235 73.762-73.762 41.232-21.19 37.906h23.24l12.854-23 73.762-41.235 41.238-73.765 20.407-11.409 53.357-29.828 28.382-50.763 12.854-23 73.762-41.235 41.237-73.765 20.407-11.409v-23.236z" fill="#231f20" transform="translate(-103.721 -101.698)"/><path d="m441.829 92.219-41.229 73.763-73.763 41.235-34.045 60.9-7.19 12.862-15.451 8.638-58.314 32.6-41.237 73.765-73.768 41.235-34.045 60.9h23.24l25.712-45.993 73.761-41.236 41.235-73.762 43.407-24.267 30.358-16.971 15.523-27.769 25.712-45.993 73.765-41.238 41.235-73.762 43.407-24.267v-23.24z" fill="#231f20" transform="translate(-40.144 -38.121)"/><path d="m434.317 0-55.631 31.1-41.235 73.762-73.762 41.238-33.689 60.258-7.549 13.5-18.135 10.142-55.631 31.1-41.235 73.762-73.761 41.238-33.689 60.258v23.642h10.023l38.57-68.993 73.763-41.235 41.235-73.762 66.409-37.13 7.357-4.113 2.666-4.767 38.57-68.993 73.763-41.235 41.235-73.762 66.409-37.13v-8.88z" fill="#231f20"/><path d="m370.176 0-14.49 8.1-41.235 73.761-73.762 41.239-10.689 19.116-30.549 54.646-59.277 33.138-14.49 8.1-41.233 73.761-73.762 41.239-10.689 19.116v41.57l25.593-45.781 73.763-41.235 41.235-73.762 41.154-23.008 32.613-18.232 15.642-27.983 25.593-45.781 73.763-41.235 41.237-73.769 41.152-23z" fill="#231f20"/><path d="m324.357 0-32.906 58.86-61.451 34.354-12.314 6.886-41.235 73.762-73.762 41.238-8.331 14.9-32.907 58.86-61.451 34.354v26.431l2.594-4.639 73.763-41.235 41.235-73.762.008-.009 73.756-41.231 38.644-69.127 2.593-4.639 73.763-41.235 41.237-73.768h.007z" fill="#231f20"/><path d="m288.5 0-20.049 35.861-38.451 21.495-35.314 19.744-41.235 73.762-73.762 41.238-21.189 37.9-20.048 35.861-38.452 21.495v23.244l53.357-29.828 28.382-50.772 12.854-22.993 73.762-41.235 41.238-73.772 20.407-11.4 53.357-29.829 28.382-50.771z" fill="#231f20"/><path d="m252.642 0-7.19 12.863-15.452 8.637-58.313 32.6-41.235 73.762-73.763 41.238-34.047 60.9-7.19 12.862-15.452 8.638v23.24l30.357-16.971 15.524-27.769 25.712-45.993 73.762-41.235 41.238-73.772 43.407-24.262 30.357-16.971 15.524-27.767z" fill="#231f20" transform="translate(-.001)"/><path d="m204.317 0-55.631 31.1-41.235 73.762-73.762 41.238-33.689 60.258v32.522l7.357-4.113 2.666-4.767 38.57-68.993 73.763-41.235 41.235-73.762 66.409-37.13 7.357-4.113 2.666-4.767z" fill="#231f20"/><path d="m1222.5 1223.536-18.135 10.138h25.683v-23.641z" fill="#231f20" transform="translate(-770.054 -773.675)"/><path d="m1085.778 1086.809-59.278 33.138h41.57l32.614-18.232 15.642-27.981v-41.571z" fill="#231f20" transform="translate(-656.327 -659.949)"/><path d="m1022.78 903.171-41.234 73.762-73.762 41.235-8.329 14.9h23.245l73.756-41.232 38.642-69.124v-26.425z" fill="#231f20" transform="translate(-575.094 -573.072)"/><path d="m936.2 816.593-41.234 73.762-73.761 41.235-21.187 37.9h23.239l12.853-22.99 73.762-41.235 41.237-73.765 20.407-11.409v-23.24z" fill="#231f20" transform="translate(-511.517 -509.494)"/><path d="m849.625 730.016-41.234 73.762-73.763 41.235-34.045 60.9h23.237l25.712-45.993 73.768-41.236 41.235-73.762 43.407-24.267v-23.239z" fill="#231f20" transform="translate(-447.94 -445.917)"/></g><g transform="translate(460 .002)"><path d="m0 0v460h460v-460z" fill="#f5f1e9"/><g fill="#cfc5b2"><path d="m61.638 446.475-38.57 68.993-2.668 4.769 8.1 8.093 7.19-12.862 34.045-60.9z" transform="translate(-13.045 -285.47)"/><path d="m0 428.476v22.572l33.687-60.259-8.094-8.089z" transform="translate(0 -244.69)"/><path d="m0 323.555v22.572l10.687-19.117-8.093-8.094z" transform="translate(0 -203.91)"/><path d="m176.342 0-28.38 50.767 8.094 8.094 32.905-58.861z" transform="translate(-94.604)"/><path d="m23.068 0-2.668 4.767 8.1 8.094 7.186-12.861z" transform="translate(-13.045)"/><path d="m99.7 0-15.519 27.767 8.094 8.094 20.049-35.861z" transform="translate(-53.824)"/><path d="m347.395 209.432 41.235-73.762-8.094-8.094-41.236 73.762z" transform="translate(-216.944 -81.571)"/><path d="m474.954 336.991 41.235-73.762-8.094-8.094-41.235 73.765z" transform="translate(-298.503 -163.13)"/><path d="m530.639 392.678 8.094 8.094 30.549-54.646 10.687-19.117-8.094-8.094-2.593 4.639z" transform="translate(-339.282 -203.911)"/><path d="m211.742 73.779 8.093 8.093 41.235-73.762-8.093-8.094z" transform="translate(-135.385 -.011)"/><path d="m283.615 145.652 41.235-73.762-8.093-8.09-41.235 73.762z" transform="translate(-176.164 -40.791)"/><path d="m411.174 273.211 41.235-73.762-8.094-8.094-41.235 73.762z" transform="translate(-257.723 -122.35)"/><path d="m610.061 428.476-15.642 27.982 8.094 8.094 7.549-13.5 33.687-60.259-8.093-8.094-25.593 45.781z" transform="translate(-380.061 -244.69)"/><path d="m699.433 446.475-38.57 68.993-2.666 4.769 8.094 8.094 7.19-12.862 34.045-60.9z" transform="translate(-420.841 -285.47)"/><path d="m814.138 0-28.38 50.767 8.094 8.094 32.904-58.861z" transform="translate(-502.4)"/><path d="m660.864 0-2.664 4.767 8.094 8.094 7.188-12.861z" transform="translate(-420.841)"/><path d="m737.5 0-15.523 27.767 8.094 8.094 20.048-35.861z" transform="translate(-461.62)"/><path d="m985.191 209.432 41.234-73.762-8.093-8.094-41.232 73.762z" transform="translate(-624.739 -81.571)"/><path d="m1112.749 336.991 41.234-73.762-8.094-8.094-41.234 73.765z" transform="translate(-706.298 -163.13)"/><path d="m1168.434 400.9 8.094 8.094 30.548-54.646v-22.574z" transform="translate(-747.077 -212.132)"/><path d="m849.538 73.779 8.093 8.093 41.235-73.762-8.093-8.094z" transform="translate(-543.18 -.011)"/><path d="m921.411 145.652 41.235-73.762-8.094-8.09-41.235 73.762z" transform="translate(-583.96 -40.791)"/><path d="m1048.969 273.211 41.234-73.762-8.094-8.094-41.234 73.762z" transform="translate(-665.518 -122.35)"/><path d="m1232.213 537.625 8.094 8.094 7.548-13.5v-22.575z" transform="translate(-787.857 -325.858)"/><path d="m27.795 1153.264h12.618l34.045-60.9-8.093-8.094z" transform="translate(-17.772 -693.265)"/><path d="m0 1066.272v22.572l33.687-60.259-8.094-8.094z" transform="translate(0 -652.486)"/><path d="m0 961.351v22.571l10.687-19.116-8.093-8.094z" transform="translate(0 -611.706)"/><path d="m226.664 1234.823h12.619l8.329-14.9-8.093-8.094z" transform="translate(-144.925 -774.825)"/><path d="m127.229 1194.044h12.619l21.187-37.9-8.093-8.094z" transform="translate(-81.348 -734.045)"/><path d="m156.055 655.891 32.906-58.862 8.329-14.9-8.094-8.094-12.854 22.992-28.38 50.773z" transform="translate(-94.604 -367.03)"/><path d="m112.324 556.248 21.187-37.9-8.093-8.094-25.713 45.994-15.523 27.769 8.094 8.093z" transform="translate(-53.825 -326.25)"/><path d="m380.536 765.372-41.236 73.762 8.094 8.094 41.234-73.762z" transform="translate(-216.943 -489.367)"/><path d="m508.094 892.931-41.235 73.762 8.094 8.094 41.234-73.762z" transform="translate(-298.502 -570.926)"/><path d="m261.071 645.907-8.094-8.093-41.235 73.762 8.093 8.094z" transform="translate(-135.385 -407.809)"/><path d="m316.757 701.593-41.235 73.762 8.094 8.094 41.235-73.762z" transform="translate(-176.164 -448.588)"/><path d="m444.315 829.152-41.235 73.762 8.094 8.094 41.234-73.762z" transform="translate(-257.723 -530.147)"/><path d="m665.59 1153.264h12.618l34.045-60.9-8.093-8.094z" transform="translate(-425.567 -693.265)"/><path d="m643.747 1028.585-8.093-8.094-25.593 45.781-15.643 27.982 8.094 8.094 7.549-13.5z" transform="translate(-380.061 -652.486)"/><path d="m569.281 983.923 10.687-19.117-8.094-8.094-2.593 4.639-38.643 69.124 8.094 8.094z" transform="translate(-339.282 -611.707)"/><path d="m864.46 1234.823h12.619l8.329-14.9-8.094-8.094z" transform="translate(-552.721 -774.825)"/><path d="m765.024 1194.044h12.619l21.187-37.9-8.093-8.094z" transform="translate(-489.144 -734.045)"/><path d="m793.851 655.891 32.906-58.862 8.329-14.9-8.094-8.094-12.854 22.992-28.381 50.773z" transform="translate(-502.4 -367.03)"/><path d="m750.12 556.248 21.187-37.9-8.093-8.094-25.714 45.994-15.523 27.769 8.094 8.093z" transform="translate(-461.62 -326.25)"/><path d="m1018.331 765.372-41.231 73.762 8.094 8.094 41.234-73.762z" transform="translate(-624.739 -489.367)"/><path d="m1145.889 892.931-41.235 73.762 8.094 8.094 41.234-73.762z" transform="translate(-706.297 -570.926)"/><path d="m1168.434 1038.7 8.094 8.094 30.548-54.646v-22.577z" transform="translate(-747.077 -619.928)"/><path d="m898.866 645.907-8.093-8.093-41.235 73.762 8.093 8.094z" transform="translate(-543.18 -407.809)"/><path d="m954.552 701.593-41.235 73.762 8.094 8.094 41.235-73.762z" transform="translate(-583.959 -448.588)"/><path d="m1082.11 829.152-41.235 73.762 8.094 8.094 41.234-73.762z" transform="translate(-665.519 -530.147)"/><path d="m1232.213 1175.421 8.094 8.094 7.548-13.5v-22.572z" transform="translate(-787.857 -733.654)"/></g><path d="m140.176 0-14.49 8.1-41.235 73.761-73.762 41.239-10.689 19.116v41.57l25.594-45.781 73.764-41.238 41.235-73.767 41.152-23z" fill="#231f20"/><path d="m94.357 0-32.905 58.86-61.452 34.354v26.431l2.594-4.639 73.764-41.239 41.235-73.767h.007z" fill="#231f20"/><path d="m58.5 0-20.048 35.861-38.452 21.495v23.244l53.357-29.833 28.382-50.767z" fill="#231f20" transform="translate(-.001)"/><path d="m22.642 0-7.19 12.863-15.452 8.637v23.238l30.357-16.971 15.524-27.767z" fill="#231f20"/><path d="m0 0v8.88l7.357-4.113 2.666-4.767z" fill="#231f20"/><path d="m814.709 585.74-18.135 10.138-55.631 31.1-41.235 73.762-73.762 41.235-33.687 60.259-7.549 13.5-18.135 10.138h35.707l38.57-68.993 73.762-41.235 41.235-73.762 66.407-37.125v-32.52z" fill="#231f20" transform="translate(-362.258 -365.88)"/><path d="m677.982 449.013-59.282 33.138-14.49 8.1-41.235 73.762-73.755 41.236-10.687 19.116-30.549 54.646-59.284 33.14h41.57l32.613-18.232 15.643-27.982 25.593-45.781 73.763-41.235 41.235-73.762 41.153-23.007 32.614-18.232 15.642-27.981v-41.572z" fill="#231f20" transform="translate(-248.532 -252.153)"/><path d="m614.984 265.374-41.234 73.762-73.762 41.235-8.329 14.9-32.906 58.862-61.453 34.356-12.314 6.884-41.235 73.762-73.762 41.235-8.329 14.9h23.24l73.756-41.232 38.644-69.12 2.593-4.639 73.763-41.235 41.235-73.762.012-.007 73.756-41.231 38.641-69.127v-26.427z" fill="#231f20" transform="translate(-167.298 -165.275)"/><path d="m528.407 178.8-41.234 73.762-73.763 41.235-21.19 37.903-20.048 35.862-38.452 21.5-35.313 19.738-41.235 73.762-73.762 41.232-21.19 37.906h23.24l12.854-23 73.762-41.235 41.238-73.765 20.407-11.409 53.357-29.828 28.382-50.763 12.854-23 73.762-41.235 41.237-73.765 20.407-11.409v-23.236z" fill="#231f20" transform="translate(-103.721 -101.698)"/><path d="m441.829 92.219-41.229 73.763-73.763 41.235-34.045 60.9-7.19 12.862-15.451 8.638-58.314 32.6-41.237 73.765-73.768 41.235-34.045 60.9h23.24l25.712-45.993 73.761-41.236 41.235-73.762 43.407-24.267 30.358-16.971 15.523-27.769 25.712-45.993 73.765-41.238 41.235-73.762 43.407-24.267v-23.24z" fill="#231f20" transform="translate(-40.144 -38.121)"/><path d="m434.317 0-55.631 31.1-41.235 73.762-73.762 41.238-33.689 60.258-7.549 13.5-18.135 10.142-55.631 31.1-41.235 73.762-73.761 41.238-33.689 60.258v23.642h10.023l38.57-68.993 73.763-41.235 41.235-73.762 66.409-37.13 7.357-4.113 2.666-4.767 38.57-68.993 73.763-41.235 41.235-73.762 66.409-37.13v-8.88z" fill="#231f20"/><path d="m370.176 0-14.49 8.1-41.235 73.761-73.762 41.239-10.689 19.116-30.549 54.646-59.277 33.138-14.49 8.1-41.233 73.761-73.762 41.239-10.689 19.116v41.57l25.593-45.781 73.763-41.235 41.235-73.762 41.154-23.008 32.613-18.232 15.642-27.983 25.593-45.781 73.763-41.235 41.237-73.769 41.152-23z" fill="#231f20"/><path d="m324.357 0-32.906 58.86-61.451 34.354-12.314 6.886-41.235 73.762-73.762 41.238-8.331 14.9-32.907 58.86-61.451 34.354v26.431l2.594-4.639 73.763-41.235 41.235-73.762.008-.009 73.756-41.231 38.644-69.127 2.593-4.639 73.763-41.235 41.237-73.768h.007z" fill="#231f20"/><path d="m288.5 0-20.049 35.861-38.451 21.495-35.314 19.744-41.235 73.762-73.762 41.238-21.189 37.9-20.048 35.861-38.452 21.495v23.244l53.357-29.828 28.382-50.772 12.854-22.993 73.762-41.235 41.238-73.772 20.407-11.4 53.357-29.829 28.382-50.771z" fill="#231f20"/><path d="m252.642 0-7.19 12.863-15.452 8.637-58.313 32.6-41.235 73.762-73.763 41.238-34.047 60.9-7.19 12.862-15.452 8.638v23.24l30.357-16.971 15.524-27.769 25.712-45.993 73.762-41.235 41.238-73.772 43.407-24.262 30.357-16.971 15.524-27.767z" fill="#231f20" transform="translate(-.001)"/><path d="m204.317 0-55.631 31.1-41.235 73.762-73.762 41.238-33.689 60.258v32.522l7.357-4.113 2.666-4.767 38.57-68.993 73.763-41.235 41.235-73.762 66.409-37.13 7.357-4.113 2.666-4.767z" fill="#231f20"/><path d="m1222.5 1223.536-18.135 10.138h25.683v-23.641z" fill="#231f20" transform="translate(-770.054 -773.675)"/><path d="m1085.778 1086.809-59.278 33.138h41.57l32.614-18.232 15.642-27.981v-41.571z" fill="#231f20" transform="translate(-656.327 -659.949)"/><path d="m1022.78 903.171-41.234 73.762-73.762 41.235-8.329 14.9h23.245l73.756-41.232 38.642-69.124v-26.425z" fill="#231f20" transform="translate(-575.094 -573.072)"/><path d="m936.2 816.593-41.234 73.762-73.761 41.235-21.187 37.9h23.239l12.853-22.99 73.762-41.235 41.237-73.765 20.407-11.409v-23.24z" fill="#231f20" transform="translate(-511.517 -509.494)"/><path d="m849.625 730.016-41.234 73.762-73.763 41.235-34.045 60.9h23.237l25.712-45.993 73.768-41.236 41.235-73.762 43.407-24.267v-23.239z" fill="#231f20" transform="translate(-447.94 -445.917)"/></g><g transform="translate(920 .002)"><path d="m0 0v460h460v-460z" fill="#f5f1e9"/><g fill="#cfc5b2"><path d="m61.638 446.475-38.57 68.993-2.668 4.769 8.1 8.093 7.19-12.862 34.045-60.9z" transform="translate(-13.045 -285.47)"/><path d="m0 428.476v22.572l33.687-60.259-8.094-8.089z" transform="translate(0 -244.69)"/><path d="m0 323.555v22.572l10.687-19.117-8.093-8.094z" transform="translate(0 -203.91)"/><path d="m176.342 0-28.38 50.767 8.094 8.094 32.905-58.861z" transform="translate(-94.604)"/><path d="m23.068 0-2.668 4.767 8.1 8.094 7.186-12.861z" transform="translate(-13.045)"/><path d="m99.7 0-15.519 27.767 8.094 8.094 20.049-35.861z" transform="translate(-53.824)"/><path d="m347.395 209.432 41.235-73.762-8.094-8.094-41.236 73.762z" transform="translate(-216.944 -81.571)"/><path d="m474.954 336.991 41.235-73.762-8.094-8.094-41.235 73.765z" transform="translate(-298.503 -163.13)"/><path d="m530.639 392.678 8.094 8.094 30.549-54.646 10.687-19.117-8.094-8.094-2.593 4.639z" transform="translate(-339.282 -203.911)"/><path d="m211.742 73.779 8.093 8.093 41.235-73.762-8.093-8.094z" transform="translate(-135.385 -.011)"/><path d="m283.615 145.652 41.235-73.762-8.093-8.09-41.235 73.762z" transform="translate(-176.164 -40.791)"/><path d="m411.174 273.211 41.235-73.762-8.094-8.094-41.235 73.762z" transform="translate(-257.723 -122.35)"/><path d="m610.061 428.476-15.642 27.982 8.094 8.094 7.549-13.5 33.687-60.259-8.093-8.094-25.593 45.781z" transform="translate(-380.061 -244.69)"/><path d="m699.433 446.475-38.57 68.993-2.666 4.769 8.094 8.094 7.19-12.862 34.045-60.9z" transform="translate(-420.841 -285.47)"/><path d="m814.138 0-28.38 50.767 8.094 8.094 32.904-58.861z" transform="translate(-502.4)"/><path d="m660.864 0-2.664 4.767 8.094 8.094 7.188-12.861z" transform="translate(-420.841)"/><path d="m737.5 0-15.523 27.767 8.094 8.094 20.048-35.861z" transform="translate(-461.62)"/><path d="m985.191 209.432 41.234-73.762-8.093-8.094-41.232 73.762z" transform="translate(-624.739 -81.571)"/><path d="m1112.749 336.991 41.234-73.762-8.094-8.094-41.234 73.765z" transform="translate(-706.298 -163.13)"/><path d="m1168.434 400.9 8.094 8.094 30.548-54.646v-22.574z" transform="translate(-747.077 -212.132)"/><path d="m849.538 73.779 8.093 8.093 41.235-73.762-8.093-8.094z" transform="translate(-543.18 -.011)"/><path d="m921.411 145.652 41.235-73.762-8.094-8.09-41.235 73.762z" transform="translate(-583.96 -40.791)"/><path d="m1048.969 273.211 41.234-73.762-8.094-8.094-41.234 73.762z" transform="translate(-665.518 -122.35)"/><path d="m1232.213 537.625 8.094 8.094 7.548-13.5v-22.575z" transform="translate(-787.857 -325.858)"/><path d="m27.795 1153.264h12.618l34.045-60.9-8.093-8.094z" transform="translate(-17.772 -693.265)"/><path d="m0 1066.272v22.572l33.687-60.259-8.094-8.094z" transform="translate(0 -652.486)"/><path d="m0 961.351v22.571l10.687-19.116-8.093-8.094z" transform="translate(0 -611.706)"/><path d="m226.664 1234.823h12.619l8.329-14.9-8.093-8.094z" transform="translate(-144.925 -774.825)"/><path d="m127.229 1194.044h12.619l21.187-37.9-8.093-8.094z" transform="translate(-81.348 -734.045)"/><path d="m156.055 655.891 32.906-58.862 8.329-14.9-8.094-8.094-12.854 22.992-28.38 50.773z" transform="translate(-94.604 -367.03)"/><path d="m112.324 556.248 21.187-37.9-8.093-8.094-25.713 45.994-15.523 27.769 8.094 8.093z" transform="translate(-53.825 -326.25)"/><path d="m380.536 765.372-41.236 73.762 8.094 8.094 41.234-73.762z" transform="translate(-216.943 -489.367)"/><path d="m508.094 892.931-41.235 73.762 8.094 8.094 41.234-73.762z" transform="translate(-298.502 -570.926)"/><path d="m261.071 645.907-8.094-8.093-41.235 73.762 8.093 8.094z" transform="translate(-135.385 -407.809)"/><path d="m316.757 701.593-41.235 73.762 8.094 8.094 41.235-73.762z" transform="translate(-176.164 -448.588)"/><path d="m444.315 829.152-41.235 73.762 8.094 8.094 41.234-73.762z" transform="translate(-257.723 -530.147)"/><path d="m665.59 1153.264h12.618l34.045-60.9-8.093-8.094z" transform="translate(-425.567 -693.265)"/><path d="m643.747 1028.585-8.093-8.094-25.593 45.781-15.643 27.982 8.094 8.094 7.549-13.5z" transform="translate(-380.061 -652.486)"/><path d="m569.281 983.923 10.687-19.117-8.094-8.094-2.593 4.639-38.643 69.124 8.094 8.094z" transform="translate(-339.282 -611.707)"/><path d="m864.46 1234.823h12.619l8.329-14.9-8.094-8.094z" transform="translate(-552.721 -774.825)"/><path d="m765.024 1194.044h12.619l21.187-37.9-8.093-8.094z" transform="translate(-489.144 -734.045)"/><path d="m793.851 655.891 32.906-58.862 8.329-14.9-8.094-8.094-12.854 22.992-28.381 50.773z" transform="translate(-502.4 -367.03)"/><path d="m750.12 556.248 21.187-37.9-8.093-8.094-25.714 45.994-15.523 27.769 8.094 8.093z" transform="translate(-461.62 -326.25)"/><path d="m1018.331 765.372-41.231 73.762 8.094 8.094 41.234-73.762z" transform="translate(-624.739 -489.367)"/><path d="m1145.889 892.931-41.235 73.762 8.094 8.094 41.234-73.762z" transform="translate(-706.297 -570.926)"/><path d="m1168.434 1038.7 8.094 8.094 30.548-54.646v-22.577z" transform="translate(-747.077 -619.928)"/><path d="m898.866 645.907-8.093-8.093-41.235 73.762 8.093 8.094z" transform="translate(-543.18 -407.809)"/><path d="m954.552 701.593-41.235 73.762 8.094 8.094 41.235-73.762z" transform="translate(-583.959 -448.588)"/><path d="m1082.11 829.152-41.235 73.762 8.094 8.094 41.234-73.762z" transform="translate(-665.519 -530.147)"/><path d="m1232.213 1175.421 8.094 8.094 7.548-13.5v-22.572z" transform="translate(-787.857 -733.654)"/></g><path d="m140.176 0-14.49 8.1-41.235 73.761-73.762 41.239-10.689 19.116v41.57l25.594-45.781 73.764-41.238 41.235-73.767 41.152-23z" fill="#231f20"/><path d="m94.357 0-32.905 58.86-61.452 34.354v26.431l2.594-4.639 73.764-41.239 41.235-73.767h.007z" fill="#231f20"/><path d="m58.5 0-20.048 35.861-38.452 21.495v23.244l53.357-29.833 28.382-50.767z" fill="#231f20" transform="translate(-.001)"/><path d="m22.642 0-7.19 12.863-15.452 8.637v23.238l30.357-16.971 15.524-27.767z" fill="#231f20"/><path d="m0 0v8.88l7.357-4.113 2.666-4.767z" fill="#231f20"/><path d="m814.709 585.74-18.135 10.138-55.631 31.1-41.235 73.762-73.762 41.235-33.687 60.259-7.549 13.5-18.135 10.138h35.707l38.57-68.993 73.762-41.235 41.235-73.762 66.407-37.125v-32.52z" fill="#231f20" transform="translate(-362.258 -365.88)"/><path d="m677.982 449.013-59.282 33.138-14.49 8.1-41.235 73.762-73.755 41.236-10.687 19.116-30.549 54.646-59.284 33.14h41.57l32.613-18.232 15.643-27.982 25.593-45.781 73.763-41.235 41.235-73.762 41.153-23.007 32.614-18.232 15.642-27.981v-41.572z" fill="#231f20" transform="translate(-248.532 -252.153)"/><path d="m614.984 265.374-41.234 73.762-73.762 41.235-8.329 14.9-32.906 58.862-61.453 34.356-12.314 6.884-41.235 73.762-73.762 41.235-8.329 14.9h23.24l73.756-41.232 38.644-69.12 2.593-4.639 73.763-41.235 41.235-73.762.012-.007 73.756-41.231 38.641-69.127v-26.427z" fill="#231f20" transform="translate(-167.298 -165.275)"/><path d="m528.407 178.8-41.234 73.762-73.763 41.235-21.19 37.903-20.048 35.862-38.452 21.5-35.313 19.738-41.235 73.762-73.762 41.232-21.19 37.906h23.24l12.854-23 73.762-41.235 41.238-73.765 20.407-11.409 53.357-29.828 28.382-50.763 12.854-23 73.762-41.235 41.237-73.765 20.407-11.409v-23.236z" fill="#231f20" transform="translate(-103.721 -101.698)"/><path d="m441.829 92.219-41.229 73.763-73.763 41.235-34.045 60.9-7.19 12.862-15.451 8.638-58.314 32.6-41.237 73.765-73.768 41.235-34.045 60.9h23.24l25.712-45.993 73.761-41.236 41.235-73.762 43.407-24.267 30.358-16.971 15.523-27.769 25.712-45.993 73.765-41.238 41.235-73.762 43.407-24.267v-23.24z" fill="#231f20" transform="translate(-40.144 -38.121)"/><path d="m434.317 0-55.631 31.1-41.235 73.762-73.762 41.238-33.689 60.258-7.549 13.5-18.135 10.142-55.631 31.1-41.235 73.762-73.761 41.238-33.689 60.258v23.642h10.023l38.57-68.993 73.763-41.235 41.235-73.762 66.409-37.13 7.357-4.113 2.666-4.767 38.57-68.993 73.763-41.235 41.235-73.762 66.409-37.13v-8.88z" fill="#231f20"/><path d="m370.176 0-14.49 8.1-41.235 73.761-73.762 41.239-10.689 19.116-30.549 54.646-59.277 33.138-14.49 8.1-41.233 73.761-73.762 41.239-10.689 19.116v41.57l25.593-45.781 73.763-41.235 41.235-73.762 41.154-23.008 32.613-18.232 15.642-27.983 25.593-45.781 73.763-41.235 41.237-73.769 41.152-23z" fill="#231f20"/><path d="m324.357 0-32.906 58.86-61.451 34.354-12.314 6.886-41.235 73.762-73.762 41.238-8.331 14.9-32.907 58.86-61.451 34.354v26.431l2.594-4.639 73.763-41.235 41.235-73.762.008-.009 73.756-41.231 38.644-69.127 2.593-4.639 73.763-41.235 41.237-73.768h.007z" fill="#231f20"/><path d="m288.5 0-20.049 35.861-38.451 21.495-35.314 19.744-41.235 73.762-73.762 41.238-21.189 37.9-20.048 35.861-38.452 21.495v23.244l53.357-29.828 28.382-50.772 12.854-22.993 73.762-41.235 41.238-73.772 20.407-11.4 53.357-29.829 28.382-50.771z" fill="#231f20"/><path d="m252.642 0-7.19 12.863-15.452 8.637-58.313 32.6-41.235 73.762-73.763 41.238-34.047 60.9-7.19 12.862-15.452 8.638v23.24l30.357-16.971 15.524-27.769 25.712-45.993 73.762-41.235 41.238-73.772 43.407-24.262 30.357-16.971 15.524-27.767z" fill="#231f20" transform="translate(-.001)"/><path d="m204.317 0-55.631 31.1-41.235 73.762-73.762 41.238-33.689 60.258v32.522l7.357-4.113 2.666-4.767 38.57-68.993 73.763-41.235 41.235-73.762 66.409-37.13 7.357-4.113 2.666-4.767z" fill="#231f20"/><path d="m1222.5 1223.536-18.135 10.138h25.683v-23.641z" fill="#231f20" transform="translate(-770.054 -773.675)"/><path d="m1085.778 1086.809-59.278 33.138h41.57l32.614-18.232 15.642-27.981v-41.571z" fill="#231f20" transform="translate(-656.327 -659.949)"/><path d="m1022.78 903.171-41.234 73.762-73.762 41.235-8.329 14.9h23.245l73.756-41.232 38.642-69.124v-26.425z" fill="#231f20" transform="translate(-575.094 -573.072)"/><path d="m936.2 816.593-41.234 73.762-73.761 41.235-21.187 37.9h23.239l12.853-22.99 73.762-41.235 41.237-73.765 20.407-11.409v-23.24z" fill="#231f20" transform="translate(-511.517 -509.494)"/><path d="m849.625 730.016-41.234 73.762-73.763 41.235-34.045 60.9h23.237l25.712-45.993 73.768-41.236 41.235-73.762 43.407-24.267v-23.239z" fill="#231f20" transform="translate(-447.94 -445.917)"/></g><g transform="translate(1380 .002)"><path d="m0 0v460h460v-460z" fill="#f5f1e9"/><g fill="#cfc5b2"><path d="m61.638 446.475-38.57 68.993-2.668 4.769 8.1 8.093 7.19-12.862 34.045-60.9z" transform="translate(-13.045 -285.47)"/><path d="m0 428.476v22.572l33.687-60.259-8.094-8.089z" transform="translate(0 -244.69)"/><path d="m0 323.555v22.572l10.687-19.117-8.093-8.094z" transform="translate(0 -203.91)"/><path d="m176.342 0-28.38 50.767 8.094 8.094 32.905-58.861z" transform="translate(-94.604)"/><path d="m23.068 0-2.668 4.767 8.1 8.094 7.186-12.861z" transform="translate(-13.045)"/><path d="m99.7 0-15.519 27.767 8.094 8.094 20.049-35.861z" transform="translate(-53.824)"/><path d="m347.395 209.432 41.235-73.762-8.094-8.094-41.236 73.762z" transform="translate(-216.944 -81.571)"/><path d="m474.954 336.991 41.235-73.762-8.094-8.094-41.235 73.765z" transform="translate(-298.503 -163.13)"/><path d="m530.639 392.678 8.094 8.094 30.549-54.646 10.687-19.117-8.094-8.094-2.593 4.639z" transform="translate(-339.282 -203.911)"/><path d="m211.742 73.779 8.093 8.093 41.235-73.762-8.093-8.094z" transform="translate(-135.385 -.011)"/><path d="m283.615 145.652 41.235-73.762-8.093-8.09-41.235 73.762z" transform="translate(-176.164 -40.791)"/><path d="m411.174 273.211 41.235-73.762-8.094-8.094-41.235 73.762z" transform="translate(-257.723 -122.35)"/><path d="m610.061 428.476-15.642 27.982 8.094 8.094 7.549-13.5 33.687-60.259-8.093-8.094-25.593 45.781z" transform="translate(-380.061 -244.69)"/><path d="m699.433 446.475-38.57 68.993-2.666 4.769 8.094 8.094 7.19-12.862 34.045-60.9z" transform="translate(-420.841 -285.47)"/><path d="m814.138 0-28.38 50.767 8.094 8.094 32.904-58.861z" transform="translate(-502.4)"/><path d="m660.864 0-2.664 4.767 8.094 8.094 7.188-12.861z" transform="translate(-420.841)"/><path d="m737.5 0-15.523 27.767 8.094 8.094 20.048-35.861z" transform="translate(-461.62)"/><path d="m985.191 209.432 41.234-73.762-8.093-8.094-41.232 73.762z" transform="translate(-624.739 -81.571)"/><path d="m1112.749 336.991 41.234-73.762-8.094-8.094-41.234 73.765z" transform="translate(-706.298 -163.13)"/><path d="m1168.434 400.9 8.094 8.094 30.548-54.646v-22.574z" transform="translate(-747.077 -212.132)"/><path d="m849.538 73.779 8.093 8.093 41.235-73.762-8.093-8.094z" transform="translate(-543.18 -.011)"/><path d="m921.411 145.652 41.235-73.762-8.094-8.09-41.235 73.762z" transform="translate(-583.96 -40.791)"/><path d="m1048.969 273.211 41.234-73.762-8.094-8.094-41.234 73.762z" transform="translate(-665.518 -122.35)"/><path d="m1232.213 537.625 8.094 8.094 7.548-13.5v-22.575z" transform="translate(-787.857 -325.858)"/><path d="m27.795 1153.264h12.618l34.045-60.9-8.093-8.094z" transform="translate(-17.772 -693.265)"/><path d="m0 1066.272v22.572l33.687-60.259-8.094-8.094z" transform="translate(0 -652.486)"/><path d="m0 961.351v22.571l10.687-19.116-8.093-8.094z" transform="translate(0 -611.706)"/><path d="m226.664 1234.823h12.619l8.329-14.9-8.093-8.094z" transform="translate(-144.925 -774.825)"/><path d="m127.229 1194.044h12.619l21.187-37.9-8.093-8.094z" transform="translate(-81.348 -734.045)"/><path d="m156.055 655.891 32.906-58.862 8.329-14.9-8.094-8.094-12.854 22.992-28.38 50.773z" transform="translate(-94.604 -367.03)"/><path d="m112.324 556.248 21.187-37.9-8.093-8.094-25.713 45.994-15.523 27.769 8.094 8.093z" transform="translate(-53.825 -326.25)"/><path d="m380.536 765.372-41.236 73.762 8.094 8.094 41.234-73.762z" transform="translate(-216.943 -489.367)"/><path d="m508.094 892.931-41.235 73.762 8.094 8.094 41.234-73.762z" transform="translate(-298.502 -570.926)"/><path d="m261.071 645.907-8.094-8.093-41.235 73.762 8.093 8.094z" transform="translate(-135.385 -407.809)"/><path d="m316.757 701.593-41.235 73.762 8.094 8.094 41.235-73.762z" transform="translate(-176.164 -448.588)"/><path d="m444.315 829.152-41.235 73.762 8.094 8.094 41.234-73.762z" transform="translate(-257.723 -530.147)"/><path d="m665.59 1153.264h12.618l34.045-60.9-8.093-8.094z" transform="translate(-425.567 -693.265)"/><path d="m643.747 1028.585-8.093-8.094-25.593 45.781-15.643 27.982 8.094 8.094 7.549-13.5z" transform="translate(-380.061 -652.486)"/><path d="m569.281 983.923 10.687-19.117-8.094-8.094-2.593 4.639-38.643 69.124 8.094 8.094z" transform="translate(-339.282 -611.707)"/><path d="m864.46 1234.823h12.619l8.329-14.9-8.094-8.094z" transform="translate(-552.721 -774.825)"/><path d="m765.024 1194.044h12.619l21.187-37.9-8.093-8.094z" transform="translate(-489.144 -734.045)"/><path d="m793.851 655.891 32.906-58.862 8.329-14.9-8.094-8.094-12.854 22.992-28.381 50.773z" transform="translate(-502.4 -367.03)"/><path d="m750.12 556.248 21.187-37.9-8.093-8.094-25.714 45.994-15.523 27.769 8.094 8.093z" transform="translate(-461.62 -326.25)"/><path d="m1018.331 765.372-41.231 73.762 8.094 8.094 41.234-73.762z" transform="translate(-624.739 -489.367)"/><path d="m1145.889 892.931-41.235 73.762 8.094 8.094 41.234-73.762z" transform="translate(-706.297 -570.926)"/><path d="m1168.434 1038.7 8.094 8.094 30.548-54.646v-22.577z" transform="translate(-747.077 -619.928)"/><path d="m898.866 645.907-8.093-8.093-41.235 73.762 8.093 8.094z" transform="translate(-543.18 -407.809)"/><path d="m954.552 701.593-41.235 73.762 8.094 8.094 41.235-73.762z" transform="translate(-583.959 -448.588)"/><path d="m1082.11 829.152-41.235 73.762 8.094 8.094 41.234-73.762z" transform="translate(-665.519 -530.147)"/><path d="m1232.213 1175.421 8.094 8.094 7.548-13.5v-22.572z" transform="translate(-787.857 -733.654)"/></g><path d="m140.176 0-14.49 8.1-41.235 73.761-73.762 41.239-10.689 19.116v41.57l25.594-45.781 73.764-41.238 41.235-73.767 41.152-23z" fill="#231f20"/><path d="m94.357 0-32.905 58.86-61.452 34.354v26.431l2.594-4.639 73.764-41.239 41.235-73.767h.007z" fill="#231f20"/><path d="m58.5 0-20.048 35.861-38.452 21.495v23.244l53.357-29.833 28.382-50.767z" fill="#231f20" transform="translate(-.001)"/><path d="m22.642 0-7.19 12.863-15.452 8.637v23.238l30.357-16.971 15.524-27.767z" fill="#231f20"/><path d="m0 0v8.88l7.357-4.113 2.666-4.767z" fill="#231f20"/><path d="m814.709 585.74-18.135 10.138-55.631 31.1-41.235 73.762-73.762 41.235-33.687 60.259-7.549 13.5-18.135 10.138h35.707l38.57-68.993 73.762-41.235 41.235-73.762 66.407-37.125v-32.52z" fill="#231f20" transform="translate(-362.258 -365.88)"/><path d="m677.982 449.013-59.282 33.138-14.49 8.1-41.235 73.762-73.755 41.236-10.687 19.116-30.549 54.646-59.284 33.14h41.57l32.613-18.232 15.643-27.982 25.593-45.781 73.763-41.235 41.235-73.762 41.153-23.007 32.614-18.232 15.642-27.981v-41.572z" fill="#231f20" transform="translate(-248.532 -252.153)"/><path d="m614.984 265.374-41.234 73.762-73.762 41.235-8.329 14.9-32.906 58.862-61.453 34.356-12.314 6.884-41.235 73.762-73.762 41.235-8.329 14.9h23.24l73.756-41.232 38.644-69.12 2.593-4.639 73.763-41.235 41.235-73.762.012-.007 73.756-41.231 38.641-69.127v-26.427z" fill="#231f20" transform="translate(-167.298 -165.275)"/><path d="m528.407 178.8-41.234 73.762-73.763 41.235-21.19 37.903-20.048 35.862-38.452 21.5-35.313 19.738-41.235 73.762-73.762 41.232-21.19 37.906h23.24l12.854-23 73.762-41.235 41.238-73.765 20.407-11.409 53.357-29.828 28.382-50.763 12.854-23 73.762-41.235 41.237-73.765 20.407-11.409v-23.236z" fill="#231f20" transform="translate(-103.721 -101.698)"/><path d="m441.829 92.219-41.229 73.763-73.763 41.235-34.045 60.9-7.19 12.862-15.451 8.638-58.314 32.6-41.237 73.765-73.768 41.235-34.045 60.9h23.24l25.712-45.993 73.761-41.236 41.235-73.762 43.407-24.267 30.358-16.971 15.523-27.769 25.712-45.993 73.765-41.238 41.235-73.762 43.407-24.267v-23.24z" fill="#231f20" transform="translate(-40.144 -38.121)"/><path d="m434.317 0-55.631 31.1-41.235 73.762-73.762 41.238-33.689 60.258-7.549 13.5-18.135 10.142-55.631 31.1-41.235 73.762-73.761 41.238-33.689 60.258v23.642h10.023l38.57-68.993 73.763-41.235 41.235-73.762 66.409-37.13 7.357-4.113 2.666-4.767 38.57-68.993 73.763-41.235 41.235-73.762 66.409-37.13v-8.88z" fill="#231f20"/><path d="m370.176 0-14.49 8.1-41.235 73.761-73.762 41.239-10.689 19.116-30.549 54.646-59.277 33.138-14.49 8.1-41.233 73.761-73.762 41.239-10.689 19.116v41.57l25.593-45.781 73.763-41.235 41.235-73.762 41.154-23.008 32.613-18.232 15.642-27.983 25.593-45.781 73.763-41.235 41.237-73.769 41.152-23z" fill="#231f20"/><path d="m324.357 0-32.906 58.86-61.451 34.354-12.314 6.886-41.235 73.762-73.762 41.238-8.331 14.9-32.907 58.86-61.451 34.354v26.431l2.594-4.639 73.763-41.235 41.235-73.762.008-.009 73.756-41.231 38.644-69.127 2.593-4.639 73.763-41.235 41.237-73.768h.007z" fill="#231f20"/><path d="m288.5 0-20.049 35.861-38.451 21.495-35.314 19.744-41.235 73.762-73.762 41.238-21.189 37.9-20.048 35.861-38.452 21.495v23.244l53.357-29.828 28.382-50.772 12.854-22.993 73.762-41.235 41.238-73.772 20.407-11.4 53.357-29.829 28.382-50.771z" fill="#231f20"/><path d="m252.642 0-7.19 12.863-15.452 8.637-58.313 32.6-41.235 73.762-73.763 41.238-34.047 60.9-7.19 12.862-15.452 8.638v23.24l30.357-16.971 15.524-27.769 25.712-45.993 73.762-41.235 41.238-73.772 43.407-24.262 30.357-16.971 15.524-27.767z" fill="#231f20" transform="translate(-.001)"/><path d="m204.317 0-55.631 31.1-41.235 73.762-73.762 41.238-33.689 60.258v32.522l7.357-4.113 2.666-4.767 38.57-68.993 73.763-41.235 41.235-73.762 66.409-37.13 7.357-4.113 2.666-4.767z" fill="#231f20"/><path d="m1222.5 1223.536-18.135 10.138h25.683v-23.641z" fill="#231f20" transform="translate(-770.054 -773.675)"/><path d="m1085.778 1086.809-59.278 33.138h41.57l32.614-18.232 15.642-27.981v-41.571z" fill="#231f20" transform="translate(-656.327 -659.949)"/><path d="m1022.78 903.171-41.234 73.762-73.762 41.235-8.329 14.9h23.245l73.756-41.232 38.642-69.124v-26.425z" fill="#231f20" transform="translate(-575.094 -573.072)"/><path d="m936.2 816.593-41.234 73.762-73.761 41.235-21.187 37.9h23.239l12.853-22.99 73.762-41.235 41.237-73.765 20.407-11.409v-23.24z" fill="#231f20" transform="translate(-511.517 -509.494)"/><path d="m849.625 730.016-41.234 73.762-73.763 41.235-34.045 60.9h23.237l25.712-45.993 73.768-41.236 41.235-73.762 43.407-24.267v-23.239z" fill="#231f20" transform="translate(-447.94 -445.917)"/></g><g transform="translate(1840 .002)"><path d="m0 0v460h460v-460z" fill="#f5f1e9"/><g fill="#cfc5b2"><path d="m61.638 446.475-38.57 68.993-2.668 4.769 8.1 8.093 7.19-12.862 34.045-60.9z" transform="translate(-13.045 -285.47)"/><path d="m0 428.476v22.572l33.687-60.259-8.094-8.089z" transform="translate(0 -244.69)"/><path d="m0 323.555v22.572l10.687-19.117-8.093-8.094z" transform="translate(0 -203.91)"/><path d="m176.342 0-28.38 50.767 8.094 8.094 32.905-58.861z" transform="translate(-94.604)"/><path d="m23.068 0-2.668 4.767 8.1 8.094 7.186-12.861z" transform="translate(-13.045)"/><path d="m99.7 0-15.519 27.767 8.094 8.094 20.049-35.861z" transform="translate(-53.824)"/><path d="m347.395 209.432 41.235-73.762-8.094-8.094-41.236 73.762z" transform="translate(-216.944 -81.571)"/><path d="m474.954 336.991 41.235-73.762-8.094-8.094-41.235 73.765z" transform="translate(-298.503 -163.13)"/><path d="m530.639 392.678 8.094 8.094 30.549-54.646 10.687-19.117-8.094-8.094-2.593 4.639z" transform="translate(-339.282 -203.911)"/><path d="m211.742 73.779 8.093 8.093 41.235-73.762-8.093-8.094z" transform="translate(-135.385 -.011)"/><path d="m283.615 145.652 41.235-73.762-8.093-8.09-41.235 73.762z" transform="translate(-176.164 -40.791)"/><path d="m411.174 273.211 41.235-73.762-8.094-8.094-41.235 73.762z" transform="translate(-257.723 -122.35)"/><path d="m610.061 428.476-15.642 27.982 8.094 8.094 7.549-13.5 33.687-60.259-8.093-8.094-25.593 45.781z" transform="translate(-380.061 -244.69)"/><path d="m699.433 446.475-38.57 68.993-2.666 4.769 8.094 8.094 7.19-12.862 34.045-60.9z" transform="translate(-420.841 -285.47)"/><path d="m814.138 0-28.38 50.767 8.094 8.094 32.904-58.861z" transform="translate(-502.4)"/><path d="m660.864 0-2.664 4.767 8.094 8.094 7.188-12.861z" transform="translate(-420.841)"/><path d="m737.5 0-15.523 27.767 8.094 8.094 20.048-35.861z" transform="translate(-461.62)"/><path d="m985.191 209.432 41.234-73.762-8.093-8.094-41.232 73.762z" transform="translate(-624.739 -81.571)"/><path d="m1112.749 336.991 41.234-73.762-8.094-8.094-41.234 73.765z" transform="translate(-706.298 -163.13)"/><path d="m1168.434 400.9 8.094 8.094 30.548-54.646v-22.574z" transform="translate(-747.077 -212.132)"/><path d="m849.538 73.779 8.093 8.093 41.235-73.762-8.093-8.094z" transform="translate(-543.18 -.011)"/><path d="m921.411 145.652 41.235-73.762-8.094-8.09-41.235 73.762z" transform="translate(-583.96 -40.791)"/><path d="m1048.969 273.211 41.234-73.762-8.094-8.094-41.234 73.762z" transform="translate(-665.518 -122.35)"/><path d="m1232.213 537.625 8.094 8.094 7.548-13.5v-22.575z" transform="translate(-787.857 -325.858)"/><path d="m27.795 1153.264h12.618l34.045-60.9-8.093-8.094z" transform="translate(-17.772 -693.265)"/><path d="m0 1066.272v22.572l33.687-60.259-8.094-8.094z" transform="translate(0 -652.486)"/><path d="m0 961.351v22.571l10.687-19.116-8.093-8.094z" transform="translate(0 -611.706)"/><path d="m226.664 1234.823h12.619l8.329-14.9-8.093-8.094z" transform="translate(-144.925 -774.825)"/><path d="m127.229 1194.044h12.619l21.187-37.9-8.093-8.094z" transform="translate(-81.348 -734.045)"/><path d="m156.055 655.891 32.906-58.862 8.329-14.9-8.094-8.094-12.854 22.992-28.38 50.773z" transform="translate(-94.604 -367.03)"/><path d="m112.324 556.248 21.187-37.9-8.093-8.094-25.713 45.994-15.523 27.769 8.094 8.093z" transform="translate(-53.825 -326.25)"/><path d="m380.536 765.372-41.236 73.762 8.094 8.094 41.234-73.762z" transform="translate(-216.943 -489.367)"/><path d="m508.094 892.931-41.235 73.762 8.094 8.094 41.234-73.762z" transform="translate(-298.502 -570.926)"/><path d="m261.071 645.907-8.094-8.093-41.235 73.762 8.093 8.094z" transform="translate(-135.385 -407.809)"/><path d="m316.757 701.593-41.235 73.762 8.094 8.094 41.235-73.762z" transform="translate(-176.164 -448.588)"/><path d="m444.315 829.152-41.235 73.762 8.094 8.094 41.234-73.762z" transform="translate(-257.723 -530.147)"/><path d="m665.59 1153.264h12.618l34.045-60.9-8.093-8.094z" transform="translate(-425.567 -693.265)"/><path d="m643.747 1028.585-8.093-8.094-25.593 45.781-15.643 27.982 8.094 8.094 7.549-13.5z" transform="translate(-380.061 -652.486)"/><path d="m569.281 983.923 10.687-19.117-8.094-8.094-2.593 4.639-38.643 69.124 8.094 8.094z" transform="translate(-339.282 -611.707)"/><path d="m864.46 1234.823h12.619l8.329-14.9-8.094-8.094z" transform="translate(-552.721 -774.825)"/><path d="m765.024 1194.044h12.619l21.187-37.9-8.093-8.094z" transform="translate(-489.144 -734.045)"/><path d="m793.851 655.891 32.906-58.862 8.329-14.9-8.094-8.094-12.854 22.992-28.381 50.773z" transform="translate(-502.4 -367.03)"/><path d="m750.12 556.248 21.187-37.9-8.093-8.094-25.714 45.994-15.523 27.769 8.094 8.093z" transform="translate(-461.62 -326.25)"/><path d="m1018.331 765.372-41.231 73.762 8.094 8.094 41.234-73.762z" transform="translate(-624.739 -489.367)"/><path d="m1145.889 892.931-41.235 73.762 8.094 8.094 41.234-73.762z" transform="translate(-706.297 -570.926)"/><path d="m1168.434 1038.7 8.094 8.094 30.548-54.646v-22.577z" transform="translate(-747.077 -619.928)"/><path d="m898.866 645.907-8.093-8.093-41.235 73.762 8.093 8.094z" transform="translate(-543.18 -407.809)"/><path d="m954.552 701.593-41.235 73.762 8.094 8.094 41.235-73.762z" transform="translate(-583.959 -448.588)"/><path d="m1082.11 829.152-41.235 73.762 8.094 8.094 41.234-73.762z" transform="translate(-665.519 -530.147)"/><path d="m1232.213 1175.421 8.094 8.094 7.548-13.5v-22.572z" transform="translate(-787.857 -733.654)"/></g><path d="m140.176 0-14.49 8.1-41.235 73.761-73.762 41.239-10.689 19.116v41.57l25.594-45.781 73.764-41.238 41.235-73.767 41.152-23z" fill="#231f20"/><path d="m94.357 0-32.905 58.86-61.452 34.354v26.431l2.594-4.639 73.764-41.239 41.235-73.767h.007z" fill="#231f20"/><path d="m58.5 0-20.048 35.861-38.452 21.495v23.244l53.357-29.833 28.382-50.767z" fill="#231f20" transform="translate(-.001)"/><path d="m22.642 0-7.19 12.863-15.452 8.637v23.238l30.357-16.971 15.524-27.767z" fill="#231f20"/><path d="m0 0v8.88l7.357-4.113 2.666-4.767z" fill="#231f20"/><path d="m814.709 585.74-18.135 10.138-55.631 31.1-41.235 73.762-73.762 41.235-33.687 60.259-7.549 13.5-18.135 10.138h35.707l38.57-68.993 73.762-41.235 41.235-73.762 66.407-37.125v-32.52z" fill="#231f20" transform="translate(-362.258 -365.88)"/><path d="m677.982 449.013-59.282 33.138-14.49 8.1-41.235 73.762-73.755 41.236-10.687 19.116-30.549 54.646-59.284 33.14h41.57l32.613-18.232 15.643-27.982 25.593-45.781 73.763-41.235 41.235-73.762 41.153-23.007 32.614-18.232 15.642-27.981v-41.572z" fill="#231f20" transform="translate(-248.532 -252.153)"/><path d="m614.984 265.374-41.234 73.762-73.762 41.235-8.329 14.9-32.906 58.862-61.453 34.356-12.314 6.884-41.235 73.762-73.762 41.235-8.329 14.9h23.24l73.756-41.232 38.644-69.12 2.593-4.639 73.763-41.235 41.235-73.762.012-.007 73.756-41.231 38.641-69.127v-26.427z" fill="#231f20" transform="translate(-167.298 -165.275)"/><path d="m528.407 178.8-41.234 73.762-73.763 41.235-21.19 37.903-20.048 35.862-38.452 21.5-35.313 19.738-41.235 73.762-73.762 41.232-21.19 37.906h23.24l12.854-23 73.762-41.235 41.238-73.765 20.407-11.409 53.357-29.828 28.382-50.763 12.854-23 73.762-41.235 41.237-73.765 20.407-11.409v-23.236z" fill="#231f20" transform="translate(-103.721 -101.698)"/><path d="m441.829 92.219-41.229 73.763-73.763 41.235-34.045 60.9-7.19 12.862-15.451 8.638-58.314 32.6-41.237 73.765-73.768 41.235-34.045 60.9h23.24l25.712-45.993 73.761-41.236 41.235-73.762 43.407-24.267 30.358-16.971 15.523-27.769 25.712-45.993 73.765-41.238 41.235-73.762 43.407-24.267v-23.24z" fill="#231f20" transform="translate(-40.144 -38.121)"/><path d="m434.317 0-55.631 31.1-41.235 73.762-73.762 41.238-33.689 60.258-7.549 13.5-18.135 10.142-55.631 31.1-41.235 73.762-73.761 41.238-33.689 60.258v23.642h10.023l38.57-68.993 73.763-41.235 41.235-73.762 66.409-37.13 7.357-4.113 2.666-4.767 38.57-68.993 73.763-41.235 41.235-73.762 66.409-37.13v-8.88z" fill="#231f20"/><path d="m370.176 0-14.49 8.1-41.235 73.761-73.762 41.239-10.689 19.116-30.549 54.646-59.277 33.138-14.49 8.1-41.233 73.761-73.762 41.239-10.689 19.116v41.57l25.593-45.781 73.763-41.235 41.235-73.762 41.154-23.008 32.613-18.232 15.642-27.983 25.593-45.781 73.763-41.235 41.237-73.769 41.152-23z" fill="#231f20"/><path d="m324.357 0-32.906 58.86-61.451 34.354-12.314 6.886-41.235 73.762-73.762 41.238-8.331 14.9-32.907 58.86-61.451 34.354v26.431l2.594-4.639 73.763-41.235 41.235-73.762.008-.009 73.756-41.231 38.644-69.127 2.593-4.639 73.763-41.235 41.237-73.768h.007z" fill="#231f20"/><path d="m288.5 0-20.049 35.861-38.451 21.495-35.314 19.744-41.235 73.762-73.762 41.238-21.189 37.9-20.048 35.861-38.452 21.495v23.244l53.357-29.828 28.382-50.772 12.854-22.993 73.762-41.235 41.238-73.772 20.407-11.4 53.357-29.829 28.382-50.771z" fill="#231f20"/><path d="m252.642 0-7.19 12.863-15.452 8.637-58.313 32.6-41.235 73.762-73.763 41.238-34.047 60.9-7.19 12.862-15.452 8.638v23.24l30.357-16.971 15.524-27.769 25.712-45.993 73.762-41.235 41.238-73.772 43.407-24.262 30.357-16.971 15.524-27.767z" fill="#231f20" transform="translate(-.001)"/><path d="m204.317 0-55.631 31.1-41.235 73.762-73.762 41.238-33.689 60.258v32.522l7.357-4.113 2.666-4.767 38.57-68.993 73.763-41.235 41.235-73.762 66.409-37.13 7.357-4.113 2.666-4.767z" fill="#231f20"/><path d="m1222.5 1223.536-18.135 10.138h25.683v-23.641z" fill="#231f20" transform="translate(-770.054 -773.675)"/><path d="m1085.778 1086.809-59.278 33.138h41.57l32.614-18.232 15.642-27.981v-41.571z" fill="#231f20" transform="translate(-656.327 -659.949)"/><path d="m1022.78 903.171-41.234 73.762-73.762 41.235-8.329 14.9h23.245l73.756-41.232 38.642-69.124v-26.425z" fill="#231f20" transform="translate(-575.094 -573.072)"/><path d="m936.2 816.593-41.234 73.762-73.761 41.235-21.187 37.9h23.239l12.853-22.99 73.762-41.235 41.237-73.765 20.407-11.409v-23.24z" fill="#231f20" transform="translate(-511.517 -509.494)"/><path d="m849.625 730.016-41.234 73.762-73.763 41.235-34.045 60.9h23.237l25.712-45.993 73.768-41.236 41.235-73.762 43.407-24.267v-23.239z" fill="#231f20" transform="translate(-447.94 -445.917)"/></g></g></svg>