<svg height="108" viewBox="0 0 108 108" width="108" xmlns="http://www.w3.org/2000/svg" xmlns:xlink="http://www.w3.org/1999/xlink"><clipPath id="a"><path d="m0 0h44.555v43.76h-44.555z"/></clipPath><filter id="b" filterUnits="userSpaceOnUse" height="108" width="108" x="0" y="0"><feOffset dy="3"/><feGaussianBlur result="blur" stdDeviation="3"/><feFlood flood-opacity=".098"/><feComposite in2="blur" operator="in"/><feComposite in="SourceGraphic"/></filter><g filter="url(#b)"><circle cx="45" cy="45" fill="#f8f5ef" r="45" transform="translate(9 6)"/></g><g clip-path="url(#a)" transform="translate(32 29.116)"><path d="m44.555 22.794c0-4.12-9.974-7.46-22.278-7.46s-22.277 3.34-22.277 7.46v19.068c0 4.121 9.973 7.46 22.278 7.46s22.278-3.339 22.278-7.46z" fill="#8e8e8e" transform="translate(0 -5.562)"/><path d="m44.222 22.942c0 3.977-9.627 7.2-21.5 7.2s-21.5-3.223-21.5-7.2 9.627-7.2 21.5-7.2 21.5 3.224 21.5 7.2" fill="#c6c8c5" transform="translate(-.442 -5.71)"/><path d="m22.719 16.474c11.508 0 20.9 3.028 21.474 6.835a2.353 2.353 0 0 0 .028-.366c0-3.977-9.627-7.2-21.5-7.2s-21.5 3.223-21.5 7.2a2.433 2.433 0 0 0 .027.366c.569-3.807 9.966-6.835 21.475-6.835" fill="#606060" transform="translate(-.441 -5.71)"/><path d="m24.868 29.421c-9.94 0-17.726-2.427-17.726-5.525s7.786-5.526 17.726-5.526 17.726 2.43 17.726 5.53-7.786 5.525-17.726 5.525m0-10.773c-9.621-.004-17.448 2.348-17.448 5.248s7.827 5.248 17.448 5.248 17.449-2.359 17.449-5.248-7.828-5.248-17.449-5.248" fill="#8e8e8e" transform="translate(-2.591 -6.663)"/><path d="m27.167 28.926c-7.676 0-13.688-1.923-13.688-4.377s6.012-4.377 13.688-4.377 13.688 1.923 13.688 4.377-6.013 4.377-13.688 4.377m0-8.538c-7.428 0-13.471 1.867-13.471 4.16s6.043 4.161 13.471 4.161 13.471-1.867 13.471-4.161-6.044-4.16-13.471-4.16" fill="#8e8e8e" transform="translate(-4.889 -7.317)"/><path d="m29.143 28.359c-5.728 0-10.216-1.345-10.216-3.062s4.488-3.062 10.216-3.062 10.215 1.345 10.215 3.065-4.487 3.062-10.215 3.062m0-5.967c-5.547 0-10.059 1.3-10.059 2.905s4.516 2.9 10.059 2.9 10.057-1.3 10.057-2.9-4.513-2.905-10.059-2.905" fill="#8e8e8e" transform="translate(-6.865 -8.065)"/><path d="m22.278 37.638c-9.556 0-19.2-2.107-22.278-6.162v14.785c0 4.12 9.973 7.46 22.278 7.46s22.278-3.34 22.278-7.46v-14.785c-3.075 4.055-12.722 6.162-22.278 6.162" fill="#b2381d" transform="translate(0 -11.417)"/><path d="m25.219 9.49c.447.774.776 1.343 1.037 1.8h8.885l1.037-1.8h-.031a6.26 6.26 0 0 0 .878-3.163 6.327 6.327 0 1 0 -11.776 3.163zm5.481-7.435a4.19 4.19 0 1 1 -4.19 4.19 4.19 4.19 0 0 1 4.19-4.19" fill="#8e8e8e" transform="translate(-8.84)"/><path d="m27.252 17.578.525 1.234h.023c.3.683 1.757 1.283 3.944 1.283s3.644-.6 3.944-1.283h.022l.525-1.234zm4.491 1.582c-1.262 0-2.076-.435-1.864-.872.173-.356 1-.6 1.864-.6s1.692.244 1.865.6c.212.437-.6.872-1.865.872" fill="#7c7c7c" transform="translate(-9.885 -6.376)"/><path d="m54.471 35.582c-4.235 2.218-11.011 3.418-17.881 3.531v16.087c7.557-.117 14.123-1.5 17.881-3.52z" fill="#93220d" transform="translate(-13.272 -12.907)"/><g fill="#fff"><path d="m35.653 58.546c0 1.951-1.561 1.29-3.487 1.29s-3.487.661-3.487-1.29a3.487 3.487 0 1 1 6.973 0" transform="translate(-10.403 -19.955)"/><path d="m30.788 45.505c.229 1.206-.178 2.3-.911 2.437s-1.514-.724-1.744-1.93.177-2.3.91-2.436 1.514.724 1.744 1.93" transform="translate(-10.182 -15.801)"/><path d="m25.611 50.953c.326 1.183.008 2.3-.711 2.5s-1.567-.6-1.894-1.784-.008-2.3.711-2.5 1.567.6 1.894 1.783" transform="translate(-8.298 -17.825)"/><path d="m35.451 45.505c-.23 1.206.177 2.3.911 2.437s1.514-.724 1.744-1.93-.177-2.3-.911-2.436-1.514.724-1.744 1.93" transform="translate(-12.836 -15.801)"/><path d="m40.583 50.953c-.327 1.183-.008 2.3.711 2.5s1.567-.6 1.894-1.784.008-2.3-.711-2.5-1.568.6-1.894 1.783" transform="translate(-14.674 -17.825)"/></g></g></svg>