<svg height="108" viewBox="0 0 108 108" width="108" xmlns="http://www.w3.org/2000/svg" xmlns:xlink="http://www.w3.org/1999/xlink"><clipPath id="a"><path d="m0 0h68.783v38.328h-68.783z"/></clipPath><clipPath id="b"><path d="m0 0h68.783v38.327h-68.783z"/></clipPath><clipPath id="c"><path d="m0 0h5.184v13.03h-5.184z"/></clipPath><filter id="d" filterUnits="userSpaceOnUse" height="108" width="108" x="0" y="0"><feOffset dy="3"/><feGaussianBlur result="blur" stdDeviation="3"/><feFlood flood-opacity=".098"/><feComposite in2="blur" operator="in"/><feComposite in="SourceGraphic"/></filter><g filter="url(#d)"><circle cx="45" cy="45" fill="#f8f5ef" r="45" transform="translate(9 6)"/></g><g clip-path="url(#a)" transform="translate(23 32)"><g clip-path="url(#b)"><path d="m37.062 43.849a6.682 6.682 0 1 1 -6.682-6.682 6.683 6.683 0 0 1 6.682 6.682" fill="#dd7610" transform="translate(-7.781 -12.204)"/><path d="m87.033 41.277-31.38-1.318-.015 2.741 31.395-.962c.33-.009-3.936-.112-3.936-.228s4.266-.222 3.936-.236" fill="#8e8e8e" transform="translate(-18.268 -13.12)"/><path d="m43.737 34.807c0 4.129-8.817 7.478-19.694 7.478s-19.693-3.349-19.693-7.478 11.029-14.428 21.905-14.428 17.482 10.3 17.482 14.428" fill="#8e8e8e" transform="translate(-1.428 -6.692)"/><path d="m17.956 38.785a1.159 1.159 0 1 1 -1.156-1.159 1.158 1.158 0 0 1 1.159 1.159" fill="#303030" transform="translate(-5.135 -12.354)"/><path d="m12.7 31.288a.9.9 0 1 1 -.9-.9.9.9 0 0 1 .9.9" fill="#303030" transform="translate(-3.581 -9.979)"/><path d="m17.213 8.7c-4.343 2.914.038 10.257.933 11.15l2.754 2.31c7.761-8.2 3.93-18.567-3.683-13.459" fill="#8e8e8e" transform="translate(-5.032 -2.411)"/><path d="m23.31 13.04c.347 2.362-1.754 7.578-3.146 8-.967.294-3.008-2.645-3.354-5.007s.514-4.777 1.922-5.4 4.232.04 4.579 2.4" fill="#ef9d8b" transform="translate(-5.494 -3.421)"/><path d="m39.661 21.471a16.711 16.711 0 0 0 -5.952-1.093 20.236 20.236 0 0 0 -5.643.857 17.016 17.016 0 0 0 -.983 3.53l-.031 4.5c6.662.063 11.409-3.884 12.609-7.8" fill="#7c7c7c" transform="translate(-8.882 -6.691)"/><g clip-path="url(#c)" opacity=".2" transform="translate(15.258 7.351)"><path d="m26.981 10.945c-5.158.273-4.716 9.889-3.405 12.124l.946.905a12.147 12.147 0 0 0 2.46-13.029" fill="#0c0000" transform="translate(-22.717 -10.945)"/></g><path d="m28.858 11.664c-5.44.173-5.149 10.908-4.783 12.458l1.346 4.3c11.235-3.488 12.973-17.059 3.437-16.755" fill="#8e8e8e" transform="translate(-7.848 -3.828)"/><path d="m31.864 18.09c.109 2.712-2.893 8.361-4.519 8.672-1.129.216-3.085-3.354-3.193-6.066s1.155-5.342 2.822-5.874 4.782.555 4.89 3.268" fill="#ef9d8b" transform="translate(-7.928 -4.824)"/><path d="m37.816 26.818c.893 8.519-12.187 13.307-21.576 14.135a19.143 19.143 0 0 1 -11.335-2.584c1.777 3.436 9.75 6.029 19.321 6.029 10.874.002 19.694-3.348 19.694-7.477 0-2.373-2.185-6.781-6.1-10.1" fill="#7c7c7c" transform="translate(-1.611 -8.806)"/><path d="m5.506 39.279a2.753 2.753 0 1 1 -2.753-2.753 2.753 2.753 0 0 1 2.753 2.753" fill="#dd8576" transform="translate(0 -11.993)"/><path d="m49.636 32.9a1.2 1.2 0 1 1 -2.036 1.259l-3.93-6.365a1.2 1.2 0 1 1 2.036-1.258z" fill="#606060" transform="translate(-14.28 -8.527)"/><path d="m56.694 6.08c-.038-.017-.077-.032-.116-.048a3.4 3.4 0 0 0 .336-.557 3.359 3.359 0 0 0 -6.063-2.895 3.453 3.453 0 0 0 -.222.612c-.037-.019-.072-.041-.109-.059a3.36 3.36 0 1 0 -2.149 6.314 3.375 3.375 0 0 0 .429 1.044l.367.176-4.544 9.5 1.744 2.824 5.319-11.12.367.176a3.408 3.408 0 0 0 1.083-.324 3.358 3.358 0 1 0 3.558-5.643m-6.284.72a1.481 1.481 0 1 1 -.7-1.974 1.483 1.483 0 0 1 .7 1.974m2.137-3.41a1.481 1.481 0 1 1 .7 1.975 1.483 1.483 0 0 1 -.7-1.975m4.036 6.36a1.481 1.481 0 1 1 -.7-1.974 1.483 1.483 0 0 1 .7 1.974" fill="#e57a1a" transform="translate(-14.652 -.22)"/><path d="m56.025 5.412c-.038-.018-.077-.032-.116-.048a3.359 3.359 0 1 0 -5.727-3.452 3.433 3.433 0 0 0 -.222.612c-.037-.019-.072-.041-.109-.06a3.36 3.36 0 1 0 -2.151 6.315 3.388 3.388 0 0 0 .429 1.045l.371.176-4.545 9.5 1.745 2.822 5.317-11.122.367.176a3.392 3.392 0 0 0 1.083-.324 3.316 3.316 0 0 0 .664.422 3.359 3.359 0 1 0 2.894-6.063m-6.284.723a1.481 1.481 0 1 1 -.7-1.974 1.482 1.482 0 0 1 .7 1.974m2.137-3.413a1.481 1.481 0 1 1 .7 1.975 1.483 1.483 0 0 1 -.7-1.975m4.036 6.36a1.481 1.481 0 1 1 -.7-1.975 1.482 1.482 0 0 1 .7 1.975" fill="#e79819" transform="translate(-14.432)"/></g></g></svg>