<svg height="108" viewBox="0 0 108 108" width="108" xmlns="http://www.w3.org/2000/svg" xmlns:xlink="http://www.w3.org/1999/xlink"><clipPath id="a"><path d="m0 0h40.554v50.159h-40.554z"/></clipPath><clipPath id="b"><path d="m0 0h40.553v50.159h-40.553z"/></clipPath><clipPath id="c"><path d="m0 0h38.975v33.494h-38.975z"/></clipPath><filter id="d" filterUnits="userSpaceOnUse" height="108" width="108" x="0" y="0"><feOffset dy="3"/><feGaussianBlur result="blur" stdDeviation="3"/><feFlood flood-opacity=".098"/><feComposite in2="blur" operator="in"/><feComposite in="SourceGraphic"/></filter><g filter="url(#d)"><circle cx="45" cy="45" fill="#f8f5ef" r="45" transform="translate(9 6)"/></g><g clip-path="url(#a)" transform="translate(33.434 25.69)"><g clip-path="url(#b)"><path d="m18.086 72.755c-1.651 0-2.516-.853-2.516-1.7a1.359 1.359 0 0 1 .653-1.13 3.07 3.07 0 0 1 1.714-.433h17.593a2.615 2.615 0 0 0 1.634-.458 1.155 1.155 0 0 0 .465-.908c0-.74-.721-1.489-2.1-1.489h-28.177c-2.043 0-3.112-1.079-3.112-2.145 0-1.039 1.02-2.156 3.26-2.156h14.463a.362.362 0 0 1 0 .724h-14.463c-1.743 0-2.537.743-2.537 1.433 0 .706.821 1.422 2.388 1.422h28.179c1.834 0 2.824 1.139 2.824 2.212a1.867 1.867 0 0 1 -.739 1.475 3.317 3.317 0 0 1 -2.085.615h-17.592a2.309 2.309 0 0 0 -1.31.31.659.659 0 0 0 -.334.53c0 .471.628.972 1.792.972a.362.362 0 1 1 0 .724" fill="#8a1111" transform="translate(-1.537 -22.596)"/><path d="m40.553 20.276a20.277 20.277 0 1 1 -20.277-20.276 20.277 20.277 0 0 1 20.277 20.276" fill="#991919"/><path d="m36.242 39.607.443-.341c.282-.231.73-.532 1.236-.982a19.348 19.348 0 0 0 1.753-1.691 11.526 11.526 0 0 0 .97-1.137l.5-.631.478-.7a19.609 19.609 0 0 0 1.79-3.246 22.123 22.123 0 0 0 1.248-3.932c.179-.694.256-1.42.372-2.147.053-.734.152-1.475.145-2.228a22.282 22.282 0 0 0 -.333-4.535 22.352 22.352 0 0 0 -1.172-4.394 21.734 21.734 0 0 0 -1.922-3.957 20.394 20.394 0 0 0 -2.5-3.275 15.765 15.765 0 0 0 -1.39-1.311 14.591 14.591 0 0 0 -1.422-1.086c-.464-.34-.963-.579-1.406-.861-.463-.245-.918-.449-1.339-.658-.435-.173-.85-.319-1.232-.463s-.751-.211-1.076-.306a13.145 13.145 0 0 0 -1.54-.321l-.551-.095.557.047a10.652 10.652 0 0 1 1.572.2c.333.075.714.119 1.109.239s.828.241 1.282.39c.442.184.922.362 1.413.584.471.259.992.495 1.485.822a15.123 15.123 0 0 1 1.511 1.063 16.229 16.229 0 0 1 1.494 1.3 18.627 18.627 0 0 1 2.7 3.311 20.92 20.92 0 0 1 2.069 4.075 23.573 23.573 0 0 1 1.56 9.258 22.379 22.379 0 0 1 -.184 2.309c-.135.753-.23 1.5-.43 2.219a19.916 19.916 0 0 1 -3.394 7.29l-.518.7c-.182.216-.367.421-.548.621a11.907 11.907 0 0 1 -1.061 1.093 19.775 19.775 0 0 1 -1.886 1.6c-.535.426-1.012.673-1.311.882l-.471.3" fill="#d13939" transform="translate(-10.618 -.475)"/><path d="m34.972 40 1.343-1.545c.387-.523.912-1.108 1.407-1.864.249-.376.533-.762.8-1.193l.817-1.362.787-1.532c.23-.548.492-1.1.718-1.693a26.046 26.046 0 0 0 1.116-3.8c.169-.666.242-1.362.356-2.057.043-.35.063-.7.1-1.059a10.308 10.308 0 0 0 .065-1.071 22.552 22.552 0 0 0 -.241-4.344 22.223 22.223 0 0 0 -1.023-4.227 21.707 21.707 0 0 0 -1.73-3.841 20.239 20.239 0 0 0 -2.261-3.23 17.489 17.489 0 0 0 -2.553-2.451c-.447-.319-.859-.65-1.294-.9l-.62-.393-.613-.323c-.2-.1-.39-.208-.58-.3l-.566-.233-.518-.215-.482-.156c-.31-.092-.583-.191-.827-.255l-.625-.142-.525-.114.53.07.639.086c.251.039.532.118.851.192l.5.124.539.182.586.2c.2.077.4.171.61.262a14.123 14.123 0 0 1 2.684 1.514 17.99 17.99 0 0 1 2.74 2.42 18.325 18.325 0 0 1 2.454 3.267 20.819 20.819 0 0 1 1.865 3.955 22.938 22.938 0 0 1 1.091 4.382 23.334 23.334 0 0 1 .219 4.509 22.179 22.179 0 0 1 -.613 4.324 22.807 22.807 0 0 1 -1.28 3.871c-.257.594-.548 1.153-.806 1.7l-.868 1.529-.893 1.346c-.3.42-.61.791-.887 1.154-.55.727-1.124 1.288-1.546 1.784-.453.467-.835.81-1.084 1.055l-.386.37" fill="#8a1111" transform="translate(-10.157 -.615)"/><path d="m31.8 40.12.388-.367c.244-.248.645-.573 1.077-1.054l.729-.782c.253-.3.511-.629.794-.977a24.646 24.646 0 0 0 1.681-2.494c.3-.462.528-.992.811-1.512.249-.537.494-1.1.724-1.684a25.249 25.249 0 0 0 1.084-3.793 23.938 23.938 0 0 0 .445-4.188 23.117 23.117 0 0 0 -3.2-12.333 20.993 20.993 0 0 0 -2.333-3.175c-.4-.487-.86-.889-1.276-1.311-.439-.395-.879-.762-1.308-1.1a23.824 23.824 0 0 0 -2.516-1.65l-1.118-.579-.982-.421c-.591-.269-1.087-.392-1.412-.518l-.506-.173.518.126a12.922 12.922 0 0 1 1.459.4l1.024.353 1.171.51c.419.183.836.435 1.294.67s.887.567 1.364.868c.455.333.923.692 1.392 1.081.445.414.938.812 1.371 1.3a18.846 18.846 0 0 1 2.519 3.206 21.579 21.579 0 0 1 1.938 3.912 23.125 23.125 0 0 1 1.456 8.852 22.833 22.833 0 0 1 -.538 4.327 22.09 22.09 0 0 1 -1.25 3.876c-.261.592-.536 1.159-.815 1.7-.312.523-.567 1.053-.894 1.515a19.039 19.039 0 0 1 -1.852 2.444c-.311.333-.594.653-.869.935l-.792.741a14.852 14.852 0 0 1 -1.162.963l-.419.331" fill="#d13939" transform="translate(-9.019 -.73)"/><path d="m30.532 40.5 1.186-1.557c.339-.523.8-1.117 1.23-1.865.216-.373.457-.763.69-1.186l.7-1.348.666-1.507c.2-.53.4-1.086.6-1.654a27.439 27.439 0 0 0 .874-3.684 24.652 24.652 0 0 0 .33-4.025 26.09 26.09 0 0 0 -.347-4.152 27.88 27.88 0 0 0 -1.013-4.045 29.591 29.591 0 0 0 -1.593-3.714 28.127 28.127 0 0 0 -2.015-3.2 20.126 20.126 0 0 0 -2.251-2.54c-.366-.381-.777-.676-1.132-1-.382-.29-.738-.578-1.093-.817a14.55 14.55 0 0 0 -1.928-1.106l-.757-.333c-.223-.089-.42-.148-.576-.2l-.485-.167.5.119c.161.041.365.082.6.15l.79.275a14.8 14.8 0 0 1 2.038.988c.381.218.763.486 1.176.755.384.306.815.6 1.209.972a20.726 20.726 0 0 1 2.425 2.511 23.654 23.654 0 0 1 2.188 3.23 26.972 26.972 0 0 1 1.716 3.8 28.692 28.692 0 0 1 1.079 4.178 27 27 0 0 1 .327 4.3 24.039 24.039 0 0 1 -1.451 7.922c-.232.575-.456 1.134-.688 1.667-.258.522-.5 1.03-.746 1.509l-.775 1.337c-.266.412-.538.79-.782 1.151-.488.724-1 1.3-1.373 1.793-.407.471-.749.823-.972 1.071l-.347.376" fill="#8a1111" transform="translate(-8.561 -.869)"/><path d="m28.933 40.437 1.023-1.576c.286-.524.679-1.13 1.041-1.876l.577-1.185.564-1.346c.189-.471.346-.978.53-1.492s.3-1.07.464-1.628c.133-.566.248-1.151.366-1.748.071-.606.208-1.214.255-1.845a25.931 25.931 0 0 0 .12-3.893 26.724 26.724 0 0 0 -.49-3.989 28.086 28.086 0 0 0 -2.525-7.487 28.855 28.855 0 0 0 -1.836-3.152 23.3 23.3 0 0 0 -2.022-2.573 19.338 19.338 0 0 0 -2.018-1.89 12.227 12.227 0 0 0 -1.772-1.192 9.115 9.115 0 0 0 -1.253-.565l-.463-.164.474.127a7.834 7.834 0 0 1 1.307.481 12.328 12.328 0 0 1 1.871 1.1 15.816 15.816 0 0 1 2.154 1.822 23.492 23.492 0 0 1 2.156 2.551 23.094 23.094 0 0 1 1.965 3.169 27.14 27.14 0 0 1 1.579 3.66 26.842 26.842 0 0 1 1.09 3.976 27.394 27.394 0 0 1 .454 4.1 26.6 26.6 0 0 1 -.172 3.989c-.059.646-.194 1.271-.3 1.885-.143.607-.282 1.2-.439 1.773-.184.564-.337 1.12-.533 1.642s-.384 1.026-.594 1.5l-.627 1.342-.653 1.163c-.409.73-.845 1.321-1.162 1.828-.716.958-1.138 1.5-1.138 1.5" fill="#d13939" transform="translate(-7.791 -1.026)"/><path d="m27.269 41 .194-1.687c.067-.536.152-1.187.212-1.936s.164-1.588.223-2.51.157-1.917.171-2.974l.05-1.624v-1.7c.027-1.151-.068-2.338-.113-3.543-.117-1.2-.2-2.425-.409-3.631-.137-1.218-.407-2.412-.645-3.593l-.452-1.731c-.14-.573-.358-1.115-.53-1.662l-.27-.809-.311-.776c-.208-.51-.4-1.017-.608-1.5-.478-.935-.859-1.861-1.357-2.636l-.663-1.138c-.214-.361-.454-.679-.66-.992a17.637 17.637 0 0 0 -1.135-1.574l-1.052-1.331 1.161 1.241a17.659 17.659 0 0 1 1.244 1.506c.228.3.492.608.732.958l.726 1.122c.536.766.961 1.687 1.485 2.62.233.481.447.988.679 1.5.114.256.235.515.339.782l.286.82c.182.555.412 1.1.562 1.686s.321 1.166.484 1.757c.258 1.2.55 2.411.7 3.646.2 1.23.264 2.473.366 3.692.031 1.222.11 2.425.068 3.587-.013.581-.01 1.153-.038 1.712s-.078 1.1-.116 1.635c-.057 1.063-.2 2.061-.293 2.984s-.251 1.763-.361 2.508-.238 1.391-.338 1.921z" fill="#d13939" transform="translate(-7.218 -1.324)"/><path d="m28.1 40.659.627-1.665a15.37 15.37 0 0 0 .66-1.927l.34-1.2a11.615 11.615 0 0 0 .342-1.337c.1-.472.194-.965.3-1.474l.157-.775.095-.81.191-1.685c.065-.575.061-1.167.1-1.766a32.826 32.826 0 0 0 -.03-3.7c-.013-.631-.13-1.258-.191-1.893a16.863 16.863 0 0 0 -.28-1.895l-.348-1.885-.49-1.838a17.059 17.059 0 0 0 -.573-1.783 17.863 17.863 0 0 0 -.648-1.708l-.717-1.618c-.249-.52-.535-1.008-.791-1.5l-.387-.717-.434-.659-.83-1.249-.87-1.07a8.815 8.815 0 0 0 -.81-.945c-.562-.534-1.013-1.06-1.458-1.403l-1.39-1.105 1.48 1c.469.322.954.817 1.56 1.331a25.847 25.847 0 0 1 1.812 1.957l.893 1.237.469.655.422.714c.279.486.591.974.865 1.5l.764 1.634a18.463 18.463 0 0 1 .684 1.734 17.64 17.64 0 0 1 .608 1.811l.523 1.871q.188.958.379 1.92a17.5 17.5 0 0 1 .261 1.939c.054.648.165 1.289.17 1.933a33.432 33.432 0 0 1 -.018 3.77c-.048.609-.034 1.214-.136 1.795s-.175 1.151-.26 1.7l-.128.818q-.1.4-.189.781l-.358 1.48a10.331 10.331 0 0 1 -.405 1.341l-.42 1.192a15.52 15.52 0 0 1 -.783 1.886z" fill="#8a1111" transform="translate(-7.49 -1.106)"/><path d="m25.925 41.188.094-1.644c.037-.522.084-1.158.089-1.885s.058-1.545.043-2.441.015-1.864-.052-2.887c-.04-1.023-.1-2.1-.189-3.214-.061-1.115-.209-2.26-.333-3.426-.164-1.159-.312-2.342-.538-3.51l-.306-1.757-.363-1.732c-.111-.576-.265-1.136-.4-1.694s-.265-1.112-.429-1.645l-.451-1.581-.469-1.5c-.29-.982-.657-1.879-.949-2.725-.344-.824-.628-1.6-.919-2.261s-.546-1.248-.78-1.715l-.732-1.474.859 1.403c.267.453.551 1.023.9 1.667s.679 1.4 1.053 2.222c.329.838.738 1.728 1.071 2.706l.536 1.5.488 1.587c.173.537.3 1.1.456 1.655s.307 1.127.427 1.706.26 1.16.391 1.745l.332 1.77c.212 1.185.345 2.381.495 3.554.11 1.179.243 2.336.289 3.463.027.563.077 1.115.082 1.658s.006 1.072.008 1.589c.024 1.032-.047 2.008-.068 2.907s-.127 1.723-.182 2.451-.145 1.359-.216 1.878l-.234 1.63" fill="#8a1111" transform="translate(-6.975 -1.484)"/><path d="m41.62 37.986.458-.312c.293-.21.748-.488 1.28-.9a20.787 20.787 0 0 0 1.842-1.551l.527-.49.514-.562.544-.587c.178-.208.345-.432.524-.654s.361-.449.537-.687l.5-.754a18.03 18.03 0 0 0 .958-1.637 19.977 19.977 0 0 0 1.461-3.806 18.08 18.08 0 0 0 .655-4.3 19.146 19.146 0 0 0 -.342-4.475 20.51 20.51 0 0 0 -1.276-4.307 20.849 20.849 0 0 0 -2.126-3.8c-.2-.293-.432-.558-.642-.835s-.428-.544-.662-.792l-.672-.752-.716-.685c-.458-.464-.982-.826-1.447-1.226-.507-.342-.981-.7-1.473-.991a21.83 21.83 0 0 0 -2.774-1.412l-1.219-.471-1.065-.314c-.641-.2-1.167-.27-1.517-.361l-.542-.118.549.072.661.085a6.1 6.1 0 0 1 .887.159l1.094.249 1.264.394a17.722 17.722 0 0 1 2.906 1.3c.516.276 1.016.628 1.552.961.494.392 1.049.747 1.541 1.206a18.348 18.348 0 0 1 2.88 3.092 21.586 21.586 0 0 1 2.259 3.922 21.116 21.116 0 0 1 1.383 4.467 19.9 19.9 0 0 1 .3 4.667 18.833 18.833 0 0 1 -.738 4.466 17.7 17.7 0 0 1 -1.629 3.9 18.363 18.363 0 0 1 -1.056 1.653l-.544.755c-.19.237-.39.46-.578.683s-.372.442-.562.648l-.584.573-.553.541-.567.465a20.855 20.855 0 0 1 -1.964 1.455c-.557.383-1.039.608-1.346.8l-.482.274" fill="#d13939" transform="translate(-12.667 -.439)"/><path d="m40.4 38.357.423-.327c.268-.221.7-.509 1.179-.941a17.978 17.978 0 0 0 1.667-1.623c.15-.167.316-.33.467-.514l.451-.58.478-.606.449-.673c.149-.231.317-.457.458-.7s.279-.506.422-.766a17.75 17.75 0 0 0 .79-1.651 20.932 20.932 0 0 0 1.142-3.776 21.475 21.475 0 0 0 .448-4.188 22.747 22.747 0 0 0 -.343-4.335 23.4 23.4 0 0 0 -2.912-8.015 22.006 22.006 0 0 0 -2.33-3.176 16.246 16.246 0 0 0 -2.65-2.334 15.348 15.348 0 0 0 -2.6-1.478 12.817 12.817 0 0 0 -2.2-.731 11.066 11.066 0 0 0 -1.477-.281l-.529-.078.533.032a9.126 9.126 0 0 1 1.506.163 13.075 13.075 0 0 1 2.287.6 13.206 13.206 0 0 1 2.75 1.371 16.852 16.852 0 0 1 2.835 2.3 19.79 19.79 0 0 1 2.52 3.212 22.166 22.166 0 0 1 1.936 3.92 24.069 24.069 0 0 1 1.18 4.35 23.627 23.627 0 0 1 .325 4.5 20.793 20.793 0 0 1 -.539 4.332 19.027 19.027 0 0 1 -1.308 3.863 18.366 18.366 0 0 1 -.882 1.67l-.464.769c-.156.249-.337.476-.5.706l-.486.671-.52.6-.5.561c-.166.177-.346.333-.509.492a18.244 18.244 0 0 1 -1.8 1.536c-.511.407-.967.644-1.252.845l-.449.289" fill="#8a1111" transform="translate(-12.225 -.574)"/><path d="m2.109 36.873.342.443c.231.282.531.73.982 1.236a19.331 19.331 0 0 0 1.691 1.753 11.6 11.6 0 0 0 1.137.97l.631.5.7.478a19.635 19.635 0 0 0 3.246 1.79 22.147 22.147 0 0 0 3.93 1.257c.694.179 1.42.256 2.147.372.734.053 1.475.152 2.227.145a22.276 22.276 0 0 0 4.535-.333 22.3 22.3 0 0 0 4.394-1.172 21.679 21.679 0 0 0 3.96-1.927 20.388 20.388 0 0 0 3.274-2.5 15.774 15.774 0 0 0 1.312-1.392 14.583 14.583 0 0 0 1.083-1.424c.34-.464.579-.963.862-1.406.245-.463.449-.918.658-1.339.173-.435.318-.85.462-1.232s.211-.75.306-1.076a12.914 12.914 0 0 0 .321-1.541l.1-.551-.047.557a10.729 10.729 0 0 1 -.2 1.572c-.076.333-.119.714-.239 1.109s-.241.828-.39 1.283c-.184.442-.363.921-.585 1.412-.258.471-.494.992-.822 1.485a14.97 14.97 0 0 1 -1.062 1.511 16.424 16.424 0 0 1 -1.3 1.494 18.622 18.622 0 0 1 -3.311 2.7 20.919 20.919 0 0 1 -4.075 2.069 23.573 23.573 0 0 1 -9.259 1.56 22.405 22.405 0 0 1 -2.309-.184c-.753-.135-1.5-.23-2.219-.43a19.926 19.926 0 0 1 -7.291-3.394l-.7-.518c-.216-.182-.421-.367-.62-.548a12 12 0 0 1 -1.093-1.061 19.665 19.665 0 0 1 -1.6-1.886c-.426-.535-.673-1.012-.883-1.311l-.3-.471" fill="#d13939" transform="translate(-.764 -10.846)"/><path d="m1.723 35.6 1.544 1.343c.523.387 1.109.912 1.864 1.407.376.249.762.533 1.193.8l1.361.817 1.532.787c.548.23 1.105.492 1.694.718a26.024 26.024 0 0 0 3.8 1.116c.666.169 1.361.242 2.057.356.35.043.7.063 1.059.1a10.159 10.159 0 0 0 1.073.056 22.554 22.554 0 0 0 4.344-.241 22.246 22.246 0 0 0 4.227-1.023 21.727 21.727 0 0 0 3.841-1.73 20.227 20.227 0 0 0 3.23-2.261 17.483 17.483 0 0 0 2.45-2.553c.319-.447.65-.859.9-1.294l.393-.62.323-.613c.1-.2.208-.391.3-.581l.233-.559.215-.518.155-.486c.092-.31.191-.583.255-.827s.1-.455.142-.624l.119-.522-.071.53-.085.639c-.033.251-.118.532-.193.851l-.124.5c-.043.173-.118.351-.182.538l-.2.586c-.078.2-.172.4-.263.611a14.119 14.119 0 0 1 -1.516 2.697 17.956 17.956 0 0 1 -2.42 2.74 18.32 18.32 0 0 1 -3.266 2.454 20.855 20.855 0 0 1 -3.955 1.865 22.988 22.988 0 0 1 -4.382 1.091 23.391 23.391 0 0 1 -4.509.219 22.193 22.193 0 0 1 -4.324-.613 22.725 22.725 0 0 1 -3.87-1.28c-.594-.257-1.154-.548-1.7-.806l-1.534-.87-1.347-.9c-.419-.3-.791-.61-1.153-.887-.727-.55-1.288-1.124-1.784-1.546-.467-.453-.81-.835-1.055-1.083l-.37-.386" fill="#8a1111" transform="translate(-.625 -10.386)"/><path d="m1.707 32.427.367.388c.247.244.573.645 1.054 1.077l.782.729c.3.253.629.511.977.794a24.482 24.482 0 0 0 2.495 1.685c.462.3.992.528 1.512.811.537.249 1.1.494 1.684.724a25.16 25.16 0 0 0 3.794 1.084 23.857 23.857 0 0 0 4.187.445 23.985 23.985 0 0 0 8.533-1.4 22.753 22.753 0 0 0 3.8-1.8 21.018 21.018 0 0 0 3.174-2.327c.487-.4.891-.86 1.311-1.276.4-.439.762-.879 1.1-1.308a23.519 23.519 0 0 0 1.647-2.511l.58-1.118.416-.986c.268-.591.391-1.087.517-1.412l.173-.506-.126.52a13.165 13.165 0 0 1 -.4 1.458l-.353 1.023-.51 1.172c-.183.419-.434.836-.669 1.294s-.567.887-.87 1.364c-.333.454-.692.922-1.08 1.391-.415.445-.814.938-1.3 1.371a18.88 18.88 0 0 1 -3.206 2.52 21.661 21.661 0 0 1 -3.912 1.937 23.119 23.119 0 0 1 -8.852 1.456 22.84 22.84 0 0 1 -4.328-.538 22.09 22.09 0 0 1 -3.876-1.25c-.592-.261-1.16-.536-1.7-.815-.523-.312-1.053-.567-1.514-.894a18.96 18.96 0 0 1 -2.444-1.852c-.334-.311-.653-.594-.935-.869l-.735-.8a14.591 14.591 0 0 1 -.963-1.162l-.331-.419" fill="#d13939" transform="translate(-.619 -9.247)"/><path d="m1.321 31.162 1.558 1.186c.522.339 1.117.8 1.864 1.23.374.216.763.457 1.186.69l1.348.7 1.507.666c.53.2 1.086.4 1.653.6a27.486 27.486 0 0 0 3.684.875 24.728 24.728 0 0 0 4.025.329 26.172 26.172 0 0 0 4.152-.346 27.937 27.937 0 0 0 4.044-1.014 29.55 29.55 0 0 0 3.714-1.593 28.137 28.137 0 0 0 3.2-2.015 20.163 20.163 0 0 0 2.544-2.251c.381-.366.676-.777 1-1.132.29-.382.579-.738.817-1.093a14.672 14.672 0 0 0 1.108-1.928l.333-.757c.096-.22.149-.42.205-.577l.166-.484-.12.5c-.041.161-.082.365-.15.6s-.172.494-.275.79a14.835 14.835 0 0 1 -.988 2.038c-.219.379-.486.763-.755 1.176-.307.384-.6.815-.972 1.209a20.63 20.63 0 0 1 -2.511 2.425 23.646 23.646 0 0 1 -3.229 2.192 26.908 26.908 0 0 1 -3.807 1.717 28.684 28.684 0 0 1 -4.178 1.079 27.007 27.007 0 0 1 -4.3.327 24.047 24.047 0 0 1 -7.915-1.451c-.574-.232-1.134-.456-1.667-.688-.522-.258-1.03-.5-1.508-.746l-1.337-.775c-.412-.266-.791-.538-1.151-.782-.723-.488-1.3-1-1.793-1.373-.472-.407-.823-.749-1.071-.972s-.377-.347-.377-.347" fill="#8a1111" transform="translate(-.479 -8.789)"/><path d="m1.674 29.563 1.576 1.024c.524.286 1.13.679 1.876 1.041l1.185.577 1.346.564c.471.19.977.346 1.492.53s1.07.3 1.628.464c.565.133 1.151.248 1.747.366.605.071 1.214.208 1.845.255a25.851 25.851 0 0 0 3.893.12 26.574 26.574 0 0 0 3.99-.49 26.406 26.406 0 0 0 3.891-1.014 26.7 26.7 0 0 0 3.6-1.507 28.95 28.95 0 0 0 3.151-1.837 23.121 23.121 0 0 0 2.573-2.019 19.269 19.269 0 0 0 1.89-2.018 12.1 12.1 0 0 0 1.192-1.773 9.193 9.193 0 0 0 .569-1.255l.165-.463-.128.474a7.824 7.824 0 0 1 -.481 1.308 12.387 12.387 0 0 1 -1.1 1.87 15.809 15.809 0 0 1 -1.825 2.152 23.545 23.545 0 0 1 -2.55 2.156 23.18 23.18 0 0 1 -3.17 1.965 27.14 27.14 0 0 1 -3.661 1.586 26.785 26.785 0 0 1 -3.976 1.09 27.46 27.46 0 0 1 -4.1.454 26.689 26.689 0 0 1 -3.989-.172c-.646-.061-1.271-.194-1.885-.3-.607-.143-1.2-.282-1.772-.439-.564-.184-1.121-.337-1.643-.534s-1.026-.384-1.5-.594l-1.341-.628-1.162-.653c-.729-.41-1.32-.845-1.828-1.162-.958-.716-1.5-1.139-1.5-1.139" fill="#d13939" transform="translate(-.607 -8.02)"/><path d="m1.266 27.9 1.687.194c.536.066 1.187.152 1.936.212s1.587.164 2.51.222 1.917.157 2.974.172l1.624.05h1.7c1.151.027 2.338-.068 3.543-.113 1.2-.117 2.425-.2 3.631-.408 1.217-.137 2.412-.407 3.591-.645l1.731-.452c.574-.14 1.116-.359 1.663-.53l.808-.27.775-.31c.511-.208 1.018-.4 1.5-.608.935-.478 1.862-.859 2.635-1.357l1.139-.667c.361-.214.68-.454.993-.66a17.632 17.632 0 0 0 1.571-1.13l1.332-1.052-1.242 1.161a17.558 17.558 0 0 1 -1.506 1.244c-.3.228-.608.492-.958.732l-1.123.726c-.766.536-1.686.961-2.62 1.485-.481.233-.988.446-1.5.679-.258.114-.515.235-.782.338l-.82.286c-.554.182-1.1.412-1.687.562l-1.757.484c-1.2.258-2.41.55-3.645.7-1.23.2-2.473.264-3.692.366-1.222.031-2.425.11-3.587.067-.581-.012-1.153-.01-1.712-.037l-1.635-.117c-1.063-.057-2.061-.2-2.984-.292s-1.763-.251-2.507-.361-1.389-.237-1.92-.34z" fill="#d13939" transform="translate(-.459 -7.447)"/><path d="m1.453 28.734 1.665.627a15.283 15.283 0 0 0 1.927.661l1.2.34a11.7 11.7 0 0 0 1.336.342l1.474.3.775.157.811.094 1.684.192c.574.069 1.167.061 1.767.1a32.519 32.519 0 0 0 3.7-.03c.631-.012 1.259-.13 1.893-.19a16.864 16.864 0 0 0 1.895-.281l1.885-.348 1.835-.498a17.007 17.007 0 0 0 1.781-.573 17.848 17.848 0 0 0 1.707-.647l1.615-.718c.52-.249 1.008-.535 1.5-.791l.717-.386.658-.435 1.25-.829 1.07-.871a8.682 8.682 0 0 0 .945-.81c.541-.562 1.065-1.014 1.411-1.457l1.1-1.39-1 1.478c-.322.47-.816.955-1.331 1.561a26.1 26.1 0 0 1 -1.957 1.811l-1.238.894-.655.469-.714.421c-.486.28-.974.591-1.5.866l-1.634.764a18.473 18.473 0 0 1 -1.735.683 17.437 17.437 0 0 1 -1.811.608l-1.871.523-1.92.379a17.315 17.315 0 0 1 -1.938.261c-.648.054-1.29.165-1.933.17a33.289 33.289 0 0 1 -3.77-.017c-.609-.048-1.214-.036-1.8-.136l-1.7-.26-.818-.128-.781-.189-1.464-.351a10.106 10.106 0 0 1 -1.341-.405l-1.192-.419a15.5 15.5 0 0 1 -1.887-.782l-1.61-.756" fill="#8a1111" transform="translate(-.527 -7.719)"/><path d="m1.215 26.555 1.644.094c.522.037 1.157.084 1.885.089s1.545.059 2.441.043 1.864.015 2.887-.052c1.024-.039 2.1-.1 3.214-.189 1.115-.061 2.26-.209 3.426-.333 1.16-.165 2.342-.312 3.51-.539l1.756-.305 1.732-.363c.576-.11 1.137-.264 1.695-.4s1.111-.265 1.644-.429l1.581-.451 1.5-.469c.983-.29 1.879-.657 2.725-.949.824-.344 1.6-.627 2.261-.919s1.249-.546 1.716-.78l1.473-.732-1.405.859c-.452.266-1.023.551-1.667.9s-1.4.679-2.221 1.053c-.838.328-1.728.737-2.706 1.071l-1.5.536-1.587.488c-.537.173-1.1.3-1.656.456s-1.126.307-1.705.428l-1.745.391-1.771.332c-1.184.212-2.381.346-3.554.5-1.179.11-2.336.243-3.462.289-.563.027-1.115.077-1.658.082l-1.589.008c-1.032.024-2.008-.047-2.907-.069s-1.723-.127-2.451-.182-1.359-.144-1.878-.216l-1.63-.234" fill="#8a1111" transform="translate(-.44 -7.204)"/><path d="m4.6 42.25.312.458c.21.293.487.748.9 1.281a20.859 20.859 0 0 0 1.554 1.844l.49.527.563.513.581.544c.207.178.432.345.654.524s.448.362.686.537l.754.5a17.944 17.944 0 0 0 1.637.958 20.031 20.031 0 0 0 3.807 1.464 18.058 18.058 0 0 0 4.3.655 19.152 19.152 0 0 0 4.476-.342 20.493 20.493 0 0 0 4.306-1.276 20.854 20.854 0 0 0 3.8-2.126c.292-.2.557-.432.834-.642s.544-.428.793-.661l.752-.677.684-.715c.463-.458.826-.981 1.226-1.446.342-.509.7-.981.991-1.474a21.7 21.7 0 0 0 1.413-2.774l.466-1.218q.17-.582.313-1.065c.2-.64.271-1.167.361-1.516l.117-.543-.071.549-.086.662a6.008 6.008 0 0 1 -.159.887l-.249 1.094-.394 1.264a17.794 17.794 0 0 1 -1.295 2.906c-.277.516-.629 1.016-.961 1.552-.392.493-.747 1.048-1.206 1.541a18.352 18.352 0 0 1 -3.093 2.88 21.621 21.621 0 0 1 -3.922 2.259 21.154 21.154 0 0 1 -4.467 1.384 19.933 19.933 0 0 1 -4.667.3 18.828 18.828 0 0 1 -4.465-.738 17.691 17.691 0 0 1 -3.9-1.629 18.44 18.44 0 0 1 -1.649-1.051l-.755-.544c-.238-.19-.46-.39-.683-.578s-.443-.372-.648-.562l-.574-.583-.539-.558-.464-.567a20.987 20.987 0 0 1 -1.456-1.965c-.382-.557-.608-1.039-.8-1.346z" fill="#d13939" transform="translate(-1.667 -12.896)"/><path d="m4.227 41.031.327.423c.221.268.509.7.941 1.179a17.911 17.911 0 0 0 1.624 1.667c.166.15.329.316.513.467l.58.451.606.478.673.449c.231.149.457.317.705.458l.766.421a17.673 17.673 0 0 0 1.651.79 20.922 20.922 0 0 0 3.773 1.142 21.463 21.463 0 0 0 4.187.448 22.711 22.711 0 0 0 4.335-.343 23.384 23.384 0 0 0 8.014-2.912 22.007 22.007 0 0 0 3.178-2.329 16.277 16.277 0 0 0 2.334-2.65 15.43 15.43 0 0 0 1.478-2.6 12.79 12.79 0 0 0 .732-2.2 11.139 11.139 0 0 0 .279-1.477l.078-.529-.032.533a9.2 9.2 0 0 1 -.163 1.506 13 13 0 0 1 -.6 2.287 13.206 13.206 0 0 1 -1.374 2.755 16.826 16.826 0 0 1 -2.3 2.835 19.735 19.735 0 0 1 -3.212 2.52 22.2 22.2 0 0 1 -3.92 1.928 24.1 24.1 0 0 1 -4.35 1.18 23.637 23.637 0 0 1 -4.5.325 20.8 20.8 0 0 1 -4.332-.539 19.04 19.04 0 0 1 -3.863-1.308 18.289 18.289 0 0 1 -1.67-.882l-.769-.464c-.249-.156-.475-.337-.706-.5l-.671-.486-.6-.52-.561-.5c-.177-.166-.332-.346-.492-.509a18.14 18.14 0 0 1 -1.535-1.8c-.408-.511-.645-.967-.845-1.252l-.289-.449" fill="#8a1111" transform="translate(-1.532 -12.454)"/><path d="m30.948 3.557-.555-.071c-.362-.036-.892-.141-1.569-.18a19.334 19.334 0 0 0 -2.435-.044 11.545 11.545 0 0 0 -1.489.118l-.8.089-.832.156a19.51 19.51 0 0 0 -3.568 1.03 22.109 22.109 0 0 0 -3.663 1.9c-.618.364-1.186.823-1.781 1.255-.557.482-1.151.935-1.678 1.473a22.247 22.247 0 0 0 -2.968 3.439 22.328 22.328 0 0 0 -2.279 3.936 21.646 21.646 0 0 0 -1.431 4.162 20.286 20.286 0 0 0 -.55 4.082 15.693 15.693 0 0 0 .05 1.912 14.694 14.694 0 0 0 .237 1.774c.087.569.272 1.09.386 1.6.153.5.331.967.481 1.412.184.43.376.827.543 1.2s.383.681.544.977a13.273 13.273 0 0 0 .863 1.317l.322.458-.36-.428a10.733 10.733 0 0 1 -.972-1.252c-.182-.289-.421-.589-.615-.954s-.415-.755-.631-1.183c-.182-.442-.4-.908-.586-1.412-.15-.516-.352-1.051-.468-1.631a15.124 15.124 0 0 1 -.317-1.82 16.426 16.426 0 0 1 -.134-1.972 18.587 18.587 0 0 1 .434-4.25 20.9 20.9 0 0 1 1.417-4.35 23.564 23.564 0 0 1 5.444-7.65 22.5 22.5 0 0 1 1.762-1.5c.627-.437 1.225-.9 1.874-1.265a19.94 19.94 0 0 1 7.555-2.755l.858-.13c.282-.024.557-.038.826-.052a11.841 11.841 0 0 1 1.524-.022 19.422 19.422 0 0 1 2.463.2c.679.077 1.192.24 1.552.3l.546.119" fill="#d13939" transform="translate(-1.701 -1.057)"/><path d="m32.569 4.528-2.042.143c-.643.1-1.428.138-2.313.322-.442.091-.916.163-1.406.281l-1.54.385-1.64.527c-.551.224-1.129.433-1.705.69a26.115 26.115 0 0 0 -3.474 1.9c-.59.352-1.134.792-1.705 1.2-.278.217-.543.453-.817.68a10.47 10.47 0 0 0 -.8.712 22.544 22.544 0 0 0 -2.9 3.242 22.248 22.248 0 0 0 -2.266 3.712 21.741 21.741 0 0 0 -1.499 3.938 20.293 20.293 0 0 0 -.685 3.883 17.483 17.483 0 0 0 .072 3.538c.091.541.149 1.068.278 1.552l.161.716c.069.227.138.448.2.662s.129.423.2.62l.232.56.214.518.234.454c.154.284.277.548.4.765l.341.542.285.453-.325-.425-.392-.513c-.15-.205-.293-.46-.466-.738l-.26-.447-.251-.5-.274-.555c-.086-.2-.161-.4-.246-.617a14.155 14.155 0 0 1 -.828-2.969 18.023 18.023 0 0 1 -.226-3.647 18.331 18.331 0 0 1 .574-4.05 20.819 20.819 0 0 1 1.477-4.115 22.908 22.908 0 0 1 2.326-3.87 23.42 23.42 0 0 1 3.033-3.344 22.262 22.262 0 0 1 3.491-2.625 22.8 22.8 0 0 1 3.643-1.831c.6-.238 1.2-.428 1.776-.634l1.7-.468 1.584-.321c.5-.087.991-.128 1.443-.189.9-.124 1.705-.115 2.354-.168.652-.009 1.164.018 1.512.02l.535.011" fill="#8a1111" transform="translate(-2.576 -1.629)"/><path d="m35.047 6.659-.534-.015c-.347 0-.861-.051-1.507-.017l-1.069.038c-.388.031-.806.084-1.253.13a24.519 24.519 0 0 0 -2.952.575c-.538.114-1.074.328-1.642.5-.556.2-1.127.427-1.7.678a25.242 25.242 0 0 0 -3.449 1.916 23.812 23.812 0 0 0 -3.276 2.646 23.118 23.118 0 0 0 -6.456 10.986 21.02 21.02 0 0 0 -.6 3.89c-.062.627-.021 1.237-.026 1.828.031.59.083 1.161.144 1.707a23.747 23.747 0 0 0 .611 2.94l.381 1.2.4.991c.228.608.492 1.046.632 1.365l.235.48-.277-.456a13.1 13.1 0 0 1 -.748-1.315l-.474-.974-.467-1.188c-.167-.426-.284-.9-.441-1.389s-.226-1.028-.35-1.579c-.086-.557-.163-1.141-.22-1.747-.022-.608-.089-1.238-.052-1.886a18.908 18.908 0 0 1 .486-4.048 21.661 21.661 0 0 1 1.4-4.137 23.159 23.159 0 0 1 5.229-7.288 22.778 22.778 0 0 1 3.441-2.679 22.1 22.1 0 0 1 3.624-1.858c.6-.233 1.2-.441 1.777-.624.59-.15 1.146-.344 1.7-.44a18.98 18.98 0 0 1 3.038-.418c.456-.016.881-.042 1.275-.047l1.084.036a14.881 14.881 0 0 1 1.5.14l.53.063" fill="#d13939" transform="translate(-3.606 -2.328)"/><path d="m36.689 7.418-1.941.262c-.608.13-1.354.225-2.189.448-.416.111-.863.216-1.326.35l-1.446.46-1.536.594c-.52.232-1.05.486-1.594.745a27.583 27.583 0 0 0 -3.223 1.987 24.732 24.732 0 0 0 -3.079 2.613 26.252 26.252 0 0 0 -2.691 3.181 27.935 27.935 0 0 0 -2.143 3.577 29.509 29.509 0 0 0 -1.5 3.753 28.111 28.111 0 0 0 -.84 3.689 20.135 20.135 0 0 0 -.2 3.387c-.01.529.072 1.028.092 1.508.065.475.113.93.2 1.352a14.64 14.64 0 0 0 .58 2.147l.3.771c.094.221.192.4.263.553l.224.46-.267-.437c-.085-.144-.2-.316-.317-.529l-.364-.753a14.906 14.906 0 0 1 -.752-2.136c-.115-.423-.2-.883-.3-1.366-.055-.488-.152-1-.168-1.542a20.718 20.718 0 0 1 .063-3.492 23.719 23.719 0 0 1 .733-3.833 27.092 27.092 0 0 1 1.478-3.906 28.569 28.569 0 0 1 2.192-3.717 27.181 27.181 0 0 1 2.812-3.275 24.067 24.067 0 0 1 6.623-4.569c.571-.242 1.125-.479 1.666-.692.551-.186 1.081-.376 1.594-.539l1.492-.4c.48-.1.94-.178 1.368-.261.857-.165 1.623-.21 2.24-.3.621-.045 1.111-.052 1.444-.07z" fill="#8a1111" transform="translate(-4.504 -2.689)"/><path d="m38.113 8.586-1.838.39c-.573.169-1.28.319-2.062.59l-1.246.434-1.351.552c-.468.2-.937.447-1.431.681s-.971.543-1.479.823c-.493.305-.989.638-1.5.977-.479.377-1 .711-1.485 1.125a25.9 25.9 0 0 0 -2.837 2.667 26.594 26.594 0 0 0 -2.475 3.167 28.174 28.174 0 0 0 -3.509 7.078 29.011 29.011 0 0 0 -.929 3.528 23.208 23.208 0 0 0 -.392 3.248 19.3 19.3 0 0 0 .091 2.764 12.17 12.17 0 0 0 .41 2.1 9.209 9.209 0 0 0 .485 1.291l.211.443-.245-.426a7.86 7.86 0 0 1 -.585-1.264 12.42 12.42 0 0 1 -.543-2.1 15.8 15.8 0 0 1 -.231-2.811 23.611 23.611 0 0 1 .279-3.329 23.138 23.138 0 0 1 .852-3.631 27.143 27.143 0 0 1 1.468-3.71 26.754 26.754 0 0 1 2.041-3.582 27.342 27.342 0 0 1 2.578-3.219 26.491 26.491 0 0 1 2.942-2.7c.5-.415 1.035-.762 1.543-1.123.53-.328 1.048-.65 1.564-.942.529-.269 1.03-.556 1.538-.785s1-.454 1.479-.639l1.392-.5 1.285-.36c.805-.226 1.531-.337 2.113-.471 1.184-.171 1.862-.252 1.862-.252" fill="#d13939" transform="translate(-5.501 -3.112)"/><path d="m40.6 9.507-1.33 1.056c-.427.332-.947.731-1.519 1.218s-1.239 1.007-1.932 1.617-1.467 1.246-2.224 1.983l-1.185 1.113-1.2 1.2c-.833.794-1.6 1.7-2.425 2.586-.766.931-1.573 1.855-2.279 2.856-.764.958-1.419 1.993-2.084 3q-.457.779-.9 1.543c-.307.5-.536 1.042-.8 1.55l-.381.762-.341.763c-.214.508-.438 1-.631 1.489-.324 1-.708 1.924-.9 2.823l-.334 1.278c-.1.406-.159.8-.235 1.168a17.41 17.41 0 0 0 -.31 1.916l-.2 1.685.057-1.7a17.773 17.773 0 0 1 .185-1.946c.052-.374.082-.777.159-1.194s.182-.852.281-1.306c.163-.922.513-1.872.8-2.9.175-.5.383-1.014.58-1.541.1-.262.2-.53.314-.792l.377-.782c.263-.52.49-1.073.8-1.59l.9-1.584c.664-1.029 1.315-2.094 2.081-3.075.733-1.009 1.562-1.936 2.352-2.87.842-.885 1.637-1.791 2.489-2.584.42-.4.823-.808 1.238-1.185l1.238-1.074c.792-.712 1.6-1.317 2.317-1.9s1.424-1.068 2.028-1.518 1.151-.814 1.6-1.117l1.414-.948" fill="#d13939" transform="translate(-7.029 -3.446)"/><path d="m39.475 9.016-1.621.734a15.4 15.4 0 0 0 -1.83.9l-1.089.609a11.559 11.559 0 0 0 -1.187.7l-1.253.832-.658.437-.641.507-1.327 1.056c-.455.356-.869.782-1.318 1.179a32.9 32.9 0 0 0 -2.595 2.638c-.437.455-.8.982-1.2 1.473a16.645 16.645 0 0 0 -1.142 1.538l-1.09 1.581-.954 1.645a17.034 17.034 0 0 0 -.854 1.665 17.747 17.747 0 0 0 -.75 1.665l-.634 1.65c-.192.543-.334 1.091-.5 1.616l-.234.78-.159.773q-.153.762-.3 1.47c-.049.478-.1.937-.14 1.372a8.691 8.691 0 0 0 -.1 1.241c.015.78-.035 1.47.033 2.028.129 1.123.2 1.765.2 1.765l-.342-1.749c-.1-.56-.1-1.253-.162-2.045a25.805 25.805 0 0 1 .1-2.665l.244-1.507.132-.794c.067-.264.136-.532.207-.8.145-.542.27-1.106.445-1.669l.615-1.7a18.42 18.42 0 0 1 .743-1.71 17.924 17.924 0 0 1 .85-1.711l.952-1.692 1.104-1.628a17.451 17.451 0 0 1 1.18-1.555c.42-.5.8-1.028 1.246-1.487a33.64 33.64 0 0 1 2.684-2.658c.466-.4.884-.834 1.366-1.174l1.39-1.022.668-.488.686-.419 1.3-.793a10.165 10.165 0 0 1 1.235-.662l1.14-.546a15.5 15.5 0 0 1 1.885-.776l1.674-.6" fill="#8a1111" transform="translate(-6.389 -3.268)"/><path d="m41.684 10.693-1.23 1.1c-.395.344-.877.759-1.395 1.271s-1.134 1.046-1.759 1.689-1.329 1.308-2.006 2.078c-.7.752-1.414 1.556-2.138 2.407-.746.831-1.45 1.746-2.187 2.657-.7.937-1.435 1.878-2.1 2.863l-1.026 1.459-.968 1.48c-.329.486-.617.991-.916 1.481s-.6.972-.859 1.466l-.8 1.437-.731 1.394c-.49.9-.865 1.794-1.256 2.6-.34.825-.685 1.571-.949 2.249s-.5 1.268-.661 1.763l-.525 1.56.39-1.6c.131-.508.333-1.112.543-1.814s.511-1.471.826-2.315c.36-.825.7-1.744 1.157-2.671l.679-1.438.777-1.468c.257-.5.559-.989.848-1.492s.58-1.014.9-1.51.636-1 .957-1.51l1.018-1.487c.687-.987 1.439-1.927 2.163-2.863.757-.91 1.48-1.823 2.245-2.652.378-.418.734-.843 1.114-1.23l1.118-1.129c.713-.747 1.453-1.387 2.1-2.008s1.308-1.129 1.862-1.6 1.073-.86 1.491-1.18z" fill="#8a1111" transform="translate(-7.314 -3.876)"/><path d="m25.861 1.428-.544-.1c-.355-.059-.873-.184-1.54-.272a20.945 20.945 0 0 0 -2.4-.2l-.722-.033-.761.034-.8.03c-.272.022-.549.062-.832.092s-.573.062-.866.106l-.887.179a17.973 17.973 0 0 0 -1.834.48 19.937 19.937 0 0 0 -3.725 1.656 18.013 18.013 0 0 0 -3.5 2.578 19.127 19.127 0 0 0 -2.927 3.408 20.551 20.551 0 0 0 -2.143 3.947 20.87 20.87 0 0 0 -1.18 4.191c-.066.348-.089.7-.136 1.044a10.1 10.1 0 0 0 -.096 1.032l-.054 1.011.022.988c0 .652.11 1.278.156 1.89.117.6.2 1.192.34 1.742a21.908 21.908 0 0 0 .962 2.962l.532 1.191.532.974c.309.6.634 1.017.817 1.328l.3.467-.338-.439-.406-.528a5.984 5.984 0 0 1 -.516-.74l-.6-.949-.615-1.176a17.66 17.66 0 0 1 -1.135-2.971c-.165-.559-.274-1.162-.418-1.777-.072-.626-.214-1.273-.236-1.942a18.318 18.318 0 0 1 .15-4.224 21.627 21.627 0 0 1 1.175-4.37 21.149 21.149 0 0 1 2.18-4.137 19.938 19.938 0 0 1 3.09-3.512 18.8 18.8 0 0 1 3.68-2.636 17.672 17.672 0 0 1 3.909-1.607 18.318 18.318 0 0 1 1.905-.421l.918-.149c.3-.034.6-.05.892-.075s.576-.05.856-.061l.818.008.776.013.729.073a21.1 21.1 0 0 1 2.419.36c.664.124 1.164.305 1.515.39l.534.147" fill="#d13939" transform="translate(-.09 -.159)"/><path d="m27.258 2.25-.53-.068c-.346-.034-.852-.133-1.5-.169a18.017 18.017 0 0 0 -2.328-.03c-.224.012-.456.01-.693.033l-.729.091-.766.091-.793.159c-.268.059-.547.1-.822.175l-.839.243a17.91 17.91 0 0 0 -1.727.609 20.95 20.95 0 0 0 -3.475 1.86 21.448 21.448 0 0 0 -3.277 2.643 22.758 22.758 0 0 0 -2.823 3.313 23.412 23.412 0 0 0 -3.609 7.72 22.06 22.06 0 0 0 -.6 3.895 16.3 16.3 0 0 0 .223 3.524 15.351 15.351 0 0 0 .8 2.886 12.718 12.718 0 0 0 1.038 2.075 11.088 11.088 0 0 0 .846 1.242l.319.43-.354-.4a9.194 9.194 0 0 1 -.95-1.18 13 13 0 0 1 -1.194-2.039 13.191 13.191 0 0 1 -.977-2.92 16.79 16.79 0 0 1 -.375-3.633 19.816 19.816 0 0 1 .488-4.054 22.149 22.149 0 0 1 1.4-4.134 24.02 24.02 0 0 1 2.245-3.912 23.523 23.523 0 0 1 2.944-3.41 20.752 20.752 0 0 1 3.444-2.681 19.06 19.06 0 0 1 3.661-1.809 18.7 18.7 0 0 1 1.8-.558l.873-.215c.286-.066.574-.1.852-.145l.819-.13.789-.055.748-.045c.243-.007.479.01.708.013a18.241 18.241 0 0 1 2.355.184c.649.072 1.14.228 1.484.288l.522.113" fill="#8a1111" transform="translate(-.769 -.599)"/><g clip-path="url(#c)" opacity=".2" transform="translate(1.579 7.06)"><path d="m36.544 11.074c.039.539.066 1.081.066 1.63a22.6 22.6 0 0 1 -34.134 19.442 20.277 20.277 0 1 0 34.068-21.072" fill="#0c0000" transform="translate(-2.476 -11.074)"/></g></g></g></svg>