<svg height="108" viewBox="0 0 108 108" width="108" xmlns="http://www.w3.org/2000/svg" xmlns:xlink="http://www.w3.org/1999/xlink"><clipPath id="a"><path d="m0 0h46.808v47.414h-46.808z"/></clipPath><filter id="b" filterUnits="userSpaceOnUse" height="108" width="108" x="0" y="0"><feOffset dy="3"/><feGaussianBlur result="blur" stdDeviation="3"/><feFlood flood-opacity=".098"/><feComposite in2="blur" operator="in"/><feComposite in="SourceGraphic"/></filter><g filter="url(#b)"><circle cx="45" cy="45" fill="#f8f5ef" r="45" transform="translate(9 6)"/></g><g clip-path="url(#a)" transform="translate(30.192 29.259)"><path d="m22.771 3.5c-3.952-2.728-18.071-5.993-21.808-.578s4.327 17.457 8.279 20.183 4.411-2.437 8.147-7.852 9.333-9.028 5.382-11.753m-14.453 4.142a2.476 2.476 0 1 1 3.444-.632 2.476 2.476 0 0 1 -3.444.632" fill="#7bbfc6"/><path d="m22.772 3.5c-3.952-2.728-18.072-5.993-21.808-.578s4.327 17.457 8.278 20.183 2.731-3.6 6.467-9.011 11.014-7.869 7.063-10.594m-14.744 4.13a2.875 2.875 0 1 1 4-.734 2.875 2.875 0 0 1 -4 .734" fill="#bbdfeb"/><path d="m20.539 9.936a14.741 14.741 0 0 1 -8.16 1.223c-5.2-.832-9.046-4.139-10.188-8.7a5.167 5.167 0 0 0 -1.227 1.241c-3.736 5.415 4.327 17.457 8.278 20.184s2.731-3.6 6.467-9.011a26.242 26.242 0 0 1 4.83-4.938" fill="#a3d8e5" transform="translate(0 -.779)"/><path d="m9.664 17.214c-3.915-2.081-8.264-6.395-9.312-11.127-2 5.827 5.219 16.407 8.892 18.943 3.233 2.23 3-1.6 4.861-6.027a23.553 23.553 0 0 1 -4.441-1.788" fill="#8cc9d3" transform="translate(-.003 -1.925)"/><path d="m27.248 22.974a24.385 24.385 0 0 1 1.429-2.5 18.18 18.18 0 0 0 -2.317-1.774c-.286-.2-1.007.353-1.61 1.228s-.856 1.736-.576 1.941a24.864 24.864 0 0 0 2.717 1.786c.116-.228.233-.454.356-.68" fill="#bbdfeb" transform="translate(-7.606 -5.899)"/><path d="m27.256 23.56a24.386 24.386 0 0 1 1.429-2.5c-.122-.117-.252-.234-.386-.349-1.135.908-3.075.145-3.541-.195-.771 1.022-.74 1.82-.576 1.941a24.865 24.865 0 0 0 2.718 1.782c.116-.228.233-.454.356-.68" fill="#a3d8e5" transform="translate(-7.615 -6.485)"/><path d="m27.9 22.7a7.089 7.089 0 0 1 -4-.529c-.1.4-.172.648-.081.715a26.717 26.717 0 0 0 2.981 1.878c.115-.228.233-.454.356-.68.251-.462.489-.927.741-1.383" fill="#7bbfc6" transform="translate(-7.515 -7.009)"/><path d="m37.959 12.7c-2.327-1.606-6.973 1.667-10.71 7.081s-5.149 10.919-2.819 12.525 3.651-2.962 7.387-8.376 8.468-9.625 6.142-11.231" fill="#7bbfc6" transform="translate(-7.365 -3.886)"/><path d="m37.9 12.689c-2.926-1.669-6.973 1.667-10.71 7.081s-5.409 10.736-2.815 12.53c1.81 1.249 1.762-4.265 5.5-9.679s9.94-8.838 8.031-9.928" fill="#bbdfeb" transform="translate(-7.31 -3.875)"/><path d="m36.646 30.4a24.534 24.534 0 0 1 1.586-2.407 18.184 18.184 0 0 0 -2.2-1.916c-.272-.215-1.026.287-1.684 1.122s-.966 1.678-.7 1.9a24.871 24.871 0 0 0 2.6 1.956q.194-.33.4-.656" fill="#bbdfeb" transform="translate(-10.607 -8.228)"/><path d="m36.655 30.939a24.534 24.534 0 0 1 1.586-2.407c-.113-.124-.235-.249-.362-.372-1.191.834-3.077-.053-3.521-.422-.836.97-.856 1.769-.7 1.9a24.87 24.87 0 0 0 2.6 1.956q.194-.33.4-.656" fill="#a3d8e5" transform="translate(-10.616 -8.769)"/><path d="m37.36 30.1a7.306 7.306 0 0 1 -4.019-.8c-.129.4-.192.678-.106.75a25.883 25.883 0 0 0 2.9 2.041c.13-.22.262-.438.4-.656.28-.445.548-.895.828-1.334" fill="#7bbfc6" transform="translate(-10.494 -9.262)"/><path d="m48.3 21.514c-2.084-1.91-7.138.691-11.583 5.539s-6.597 10.108-4.517 12.019 4.024-2.431 8.47-7.279 9.713-8.368 7.63-10.279" fill="#7bbfc6" transform="translate(-9.928 -6.602)"/><path d="m48.256 21.486c-2.668-2.056-7.138.691-11.583 5.539s-6.839 9.889-4.517 12.018c1.621 1.486 2.333-3.981 6.779-8.829s11.065-7.386 9.321-8.728" fill="#bbdfeb" transform="translate(-9.88 -6.575)"/><path d="m44.89 38.445a24.688 24.688 0 0 1 1.9-2.166 18.119 18.119 0 0 0 -1.914-2.2c-.239-.25-1.057.143-1.823.879s-1.187 1.528-.954 1.786a24.9 24.9 0 0 0 2.3 2.3q.237-.3.485-.595" fill="#bbdfeb" transform="translate(-13.289 -10.75)"/><path d="m44.9 38.886a24.688 24.688 0 0 1 1.9-2.166c-.094-.138-.2-.279-.308-.419-1.295.662-3.04-.475-3.43-.9-.961.847-1.09 1.634-.954 1.786a24.9 24.9 0 0 0 2.3 2.3q.237-.3.485-.595" fill="#a3d8e5" transform="translate(-13.298 -11.191)"/><path d="m45.792 38.128a7.239 7.239 0 0 1 -3.867-1.308c-.183.375-.258.665-.183.749a24.31 24.31 0 0 0 2.558 2.361q.238-.3.485-.595c.339-.4.666-.81 1-1.206" fill="#7bbfc6" transform="translate(-13.187 -11.64)"/><path d="m55.176 32.957c-1.544-1.892-6.188-.3-10.59 3.3s-6.9 7.821-5.355 9.714 3.741-1.578 8.145-5.171 9.344-5.946 7.8-7.839" fill="#7bbfc6" transform="translate(-12.257 -10.165)"/><path d="m55.144 32.917c-2.026-2.09-6.188-.3-10.59 3.3s-7.076 7.6-5.355 9.714c1.2 1.472 2.489-3.114 6.892-6.706s10.376-4.94 9.053-6.3" fill="#bbdfeb" transform="translate(-12.225 -10.125)"/><path d="m50.811 46.778a24.48 24.48 0 0 1 2.269-1.778 18.057 18.057 0 0 0 -1.474-2.515c-.189-.291-1.065-.055-1.955.527s-1.451 1.288-1.267 1.58a24.843 24.843 0 0 0 1.84 2.681c.193-.167.388-.332.587-.494" fill="#bbdfeb" transform="translate(-15.285 -13.392)"/><path d="m50.817 47.079a24.48 24.48 0 0 1 2.269-1.779c-.067-.154-.144-.311-.225-.468-1.394.411-2.9-1.029-3.2-1.52-1.1.654-1.373 1.405-1.267 1.579a24.842 24.842 0 0 0 1.84 2.681c.193-.167.388-.332.587-.494" fill="#a3d8e5" transform="translate(-15.291 -13.693)"/><path d="m51.928 46.432a7.1 7.1 0 0 1 -3.511-2c-.248.335-.4.592-.346.688a25.028 25.028 0 0 0 2.061 2.808c.193-.168.388-.333.587-.5.407-.332.8-.674 1.21-1" fill="#7bbfc6" transform="translate(-15.193 -14.046)"/><path d="m59.063 44.038c-.925-1.563-4.516-.9-8.153 1.249s-5.94 4.986-5.015 6.549 2.926-.745 6.563-2.9 7.531-3.337 6.6-4.9" fill="#7bbfc6" transform="translate(-14.444 -13.65)"/><path d="m59.047 44c-1.258-1.762-4.516-.9-8.153 1.249s-6.047 4.807-5.015 6.549c.72 1.215 2.176-2.014 5.812-4.167s8.177-2.484 7.356-3.631" fill="#bbdfeb" transform="translate(-14.428 -13.61)"/><path d="m54.733 54.378a24.486 24.486 0 0 1 2.443-1.531 18.208 18.208 0 0 0 -1.2-2.655c-.159-.309-1.054-.165-2 .32s-1.574 1.126-1.425 1.439a24.974 24.974 0 0 0 1.55 2.858c.21-.146.421-.29.635-.431" fill="#bbdfeb" transform="translate(-16.605 -15.816)"/><path d="m54.737 54.6a24.486 24.486 0 0 1 2.443-1.53c-.051-.161-.111-.325-.175-.49-1.429.264-2.777-1.325-3.028-1.846-1.163.536-1.513 1.255-1.425 1.439a24.971 24.971 0 0 0 1.55 2.858c.21-.146.421-.29.635-.431" fill="#a3d8e5" transform="translate(-16.609 -16.039)"/><path d="m55.969 54.014a7.291 7.291 0 0 1 -3.329-2.386c-.282.307-.377.6-.329.7a25.342 25.342 0 0 0 1.715 2.986c.21-.146.421-.29.636-.431.438-.288.869-.586 1.307-.869" fill="#7bbfc6" transform="translate(-16.533 -16.321)"/><path d="m62.742 59.971c.975-1.275-4.9-7.275-8.066-6.067s-4.37 10.646-2.776 10.496c2.43-.225 4.09-3.439 4.949-3.838 1.137-.528 5.1.434 5.889-.594" fill="#7bbfc6" transform="translate(-16.186 -16.99)"/><path d="m62.4 59.575c.7-3.508-5.1-6.92-8.259-5.713s-6.768 8.027-3.058 10.407c1.351.866 3.954-4.5 4.875-4.715 1.593-.371 6.13 1.6 6.443.021" fill="#bbdfeb" transform="translate(-15.652 -16.949)"/><path d="m52.947 55c-2.757 2.149-5.108 7.627-1.864 9.708 1.257.806 3.6-3.78 4.659-4.6a10.485 10.485 0 0 1 -2.795-5.108" fill="#a3d8e5" transform="translate(-15.652 -17.387)"/><path d="m50.207 60.352c-1 2.264-1.093 4.782.879 6.047.879.564 2.29-1.512 3.42-3.09a9.231 9.231 0 0 1 -4.3-2.957" fill="#8cc9d3" transform="translate(-15.652 -19.079)"/><g fill="#a3d8e5"><path d="m27.1 23.836c-.029-.07-.053-.141-.08-.212-3.61 5.324-5.194 10.5-2.642 12.265 1.736 1.2 1.766-3.83 5.066-9.023a8.448 8.448 0 0 1 -2.344-3.03" transform="translate(-7.31 -7.468)"/><path d="m38.19 34.669c-.772-.727-1.553-1.429-2.34-2.09-.164-.139-.337-.277-.513-.416-3.559 4.34-5.257 8.57-3.181 10.474 1.525 1.4 2.248-3.362 6.033-7.968" transform="translate(-9.881 -10.168)"/><path d="m43.262 39.781c-3.607 3.279-5.607 6.7-4.062 8.6 1.145 1.4 2.376-2.7 6.308-6.2-.732-.8-1.482-1.6-2.246-2.4" transform="translate(-12.225 -12.576)"/><path d="m50.014 47.066c-3.131 2.041-5.08 4.4-4.135 6 .706 1.192 2.125-1.89 5.613-4.041a22.8 22.8 0 0 0 -1.478-1.958" transform="translate(-14.428 -14.879)"/></g><path d="m24.425 30.293c-1.583 3.5-1.853 6.461-.049 7.7 1.215.838 1.6-1.375 2.846-4.556a16.131 16.131 0 0 1 -2.8-3.149" fill="#8cc9d3" transform="translate(-7.311 -9.577)"/><path d="m47.841 52.038c-.393-.266-.777-.552-1.149-.853-.967 1.173-1.337 2.3-.812 3.182.476.8 1.281-.339 2.823-1.827a7.949 7.949 0 0 1 -.862-.5" fill="#8cc9d3" transform="translate(-14.428 -16.181)"/><path d="m41.552 45.986c-.188-.236-.63-1.086-1.066-1.863-1.713 2.241-2.363 4.307-1.286 5.627.767.941 1.578-.6 3.21-2.764-.3-.326-.585-.658-.858-1" fill="#8cc9d3" transform="translate(-12.226 -13.949)"/><path d="m32.582 38.034c-1.5 2.768-1.844 5.158-.425 6.459 1.131 1.037 1.824-1.314 3.648-4.477-1.069-.609-2.161-1.263-3.224-1.982" fill="#8cc9d3" transform="translate(-9.881 -12.024)"/></g></svg>