<svg height="210" viewBox="0 0 210 210" width="210" xmlns="http://www.w3.org/2000/svg" xmlns:xlink="http://www.w3.org/1999/xlink"><clipPath id="a"><path d="m147.122 0c-1.723.95-7.591 8.013-9.972 13.652-.929-2.023-6.464-6.887-11.746-11.754-.549 3.894-2 9.489.518 19.654 11.079-2.293 24.714-3.537 38.42.265 1.291-3.695 3.506-12.028 2.669-18.986-2.663 1.493-6.134 2.364-12.16 9.234-1.565-3.877-4.816-7.952-7.728-12.065z" transform="translate(-124.487)"/></clipPath><clipPath id="b"><path d="m0 0h147.319v126h-147.319z"/></clipPath><linearGradient id="c" gradientUnits="objectBoundingBox" x1="-.082" x2=".649" y1="1.425" y2="-.094"><stop offset="0" stop-color="#e4b644"/><stop offset=".01" stop-color="#e4b644"/><stop offset=".039" stop-color="#d39d31"/><stop offset=".073" stop-color="#c58820"/><stop offset=".095" stop-color="#c0801a"/><stop offset=".272" stop-color="#f4c04b"/><stop offset=".334" stop-color="#fed057"/><stop offset=".334" stop-color="#ffd158"/><stop offset=".387" stop-color="#ffdd6c"/><stop offset=".446" stop-color="#f9cf5f"/><stop offset=".49" stop-color="#ebbb4d"/><stop offset=".527" stop-color="#e3b044"/><stop offset=".589" stop-color="#daa53a"/><stop offset=".631" stop-color="#e1ae42"/><stop offset=".711" stop-color="#f4cb5f"/><stop offset=".743" stop-color="#fad569"/><stop offset=".77" stop-color="#f3cc60"/><stop offset=".793" stop-color="#e8ba4f"/><stop offset=".826" stop-color="#dca83d"/><stop offset=".861" stop-color="#d69d33"/><stop offset=".9" stop-color="#d49a30"/><stop offset=".963" stop-color="#ba8833"/><stop offset=".994" stop-color="#ab7e35"/><stop offset="1" stop-color="#ab7e35"/></linearGradient><circle cx="105" cy="105" fill="#fff" r="105"/><g clip-path="url(#a)" transform="translate(83.862 38)"><path d="m0 0h31.034v48.15h-31.034z" fill="url(#c)" transform="matrix(.21899481 -.97572602 .97572602 .21899481 -5.754453 20.758842)"/></g><g clip-path="url(#b)" transform="translate(31.07 38)"><path d="m93.656 107.947c7.2 0 31.834 1.513 53.664 14.121-16.741-16.051-43.994-21.058-54.22-21.318l.079-.02c8.352-1.965 21.518-1.572 30.814.344 4.117-16.3.613-29.6-5.82-39.378 4.4-10.214 9.5-26.527 4.823-39.862-4.965.425-16.03 5.107-27.378 17.164a70.357 70.357 0 0 0 -19.34-3.4c-1.092-.032-5.1-.033-5.93-.019a70.185 70.185 0 0 0 -20.181 3.421c-11.348-12.058-22.413-16.74-27.378-17.165-3.866 11.013-1.054 24.048 2.519 34.011l2.3 5.851c-6.387 9.71-9.967 22.927-5.952 39.052 10.227-1.516 21.833-2.91 31.406-.286a3.385 3.385 0 0 1 -.591.293c-10.047.272-36.382 4.364-52.474 21.312 17.588-10.513 37.862-16.051 54.692-14.1-.862.2-1.8.47-2.772.8-10.771 2.413-33.149 9.366-49.3 27.589 13.919-9.531 30.562-18.5 53.4-21.5-5.9 2.384-19.615 6.482-30.333 22.663a72.275 72.275 0 0 1 18.968-11.8c.486.336 3.715 2.61 4.186 2.926a46.367 46.367 0 0 0 9.646 5.72c5.927 2.988 9.872 3.885 12.1 4.1a22.613 22.613 0 0 0 4.9-.031c3.583-.416 12.025-1.941 25.242-12.8a86.391 86.391 0 0 1 20.288 11.112c-8-12.543-28.049-21.154-30.475-21.8 8.244 1.253 29.412 5.449 54.157 21.416-14.927-16.45-41.193-25.984-51.042-28.4m21.5-79.265c-3.592 6.854-8.236 14.277-9.025 18.758a24.84 24.84 0 0 0 -5.432-5.332c2.8-5.52 10.164-11.693 14.457-13.426m-34.226 70.978a1.771 1.771 0 0 1 1.405 2.849c-2.427 3.175-6.4 7.005-8.931 7.005s-6.636-3.817-9.109-6.993a1.771 1.771 0 0 1 1.4-2.861zm-7.651 21.649c-5.691 4.324-12.376 2.484-13.458 2.111a26.949 26.949 0 0 0 13.458-8.618 24.328 24.328 0 0 0 13.142 8.633c-6.5 1.752-8.3.677-13.142-2.126" fill="#141414" transform="translate(0 -12.575)"/><g fill="#fff"><path d="m86.892 51.826a24.85 24.85 0 0 0 -5.432 5.332c-.789-4.481-5.433-11.9-9.026-18.758 4.294 1.733 11.654 7.905 14.458 13.426" transform="translate(-41.717 -22.116)"/><path d="m194.733 158.293 2.923-7.535a11.267 11.267 0 0 1 6.524-6.465l16.781-6.336-2.05 3.661a24.644 24.644 0 0 1 -10.711 10.117z" transform="translate(-112.152 -79.453)"/><path d="m90.481 141.618-2.05-3.661 16.781 6.336a11.267 11.267 0 0 1 6.524 6.465l2.923 7.534-13.466-6.558a24.645 24.645 0 0 1 -10.713-10.117" transform="translate(-50.93 -79.453)"/></g></g></svg>